<svg width="1920" height="507" viewBox="0 0 1920 507" fill="none" xmlns="http://www.w3.org/2000/svg">
<mask id="mask0_927_17716" style="mask-type:alpha" maskUnits="userSpaceOnUse" x="0" y="0" width="1920" height="507">
<path d="M0 0.498047C0 0.498047 584.914 0.498047 960 0.498047C1335.09 0.498047 1920 0.498047 1920 0.498047V506.407C1920 506.407 1335.09 506.407 960 506.407C584.914 506.407 0 506.407 0 506.407L0 0.498047Z" fill="white"/>
</mask>
<g mask="url(#mask0_927_17716)">
<path d="M204.386 196.208C204.386 253.68 158.409 300.271 101.693 300.271C44.9773 300.271 -1 253.68 -1 196.208C-1 138.736 44.9773 92.146 101.693 92.146C158.409 92.146 204.386 138.736 204.386 196.208ZM46.3078 196.208C46.3078 227.205 71.1046 252.332 101.693 252.332C132.282 252.332 157.078 227.205 157.078 196.208C157.078 165.212 132.282 140.085 101.693 140.085C71.1046 140.085 46.3078 165.212 46.3078 196.208Z" fill="#FCF3FF" fill-opacity="0.6"/>
<path d="M271.32 269.939C271.32 315.04 307.445 351.602 352.008 351.602C396.57 351.602 432.695 315.04 432.695 269.939C432.695 224.837 396.57 188.275 352.008 188.275C307.445 188.275 271.32 224.837 271.32 269.939ZM395.525 269.939C395.525 294.263 376.042 313.982 352.008 313.982C327.974 313.982 308.491 294.263 308.491 269.939C308.491 245.614 327.974 225.895 352.008 225.895C376.042 225.895 395.525 245.614 395.525 269.939Z" fill="#FCF3FF" fill-opacity="0.6"/>
<path d="M424.442 132.744C424.442 177.846 460.567 214.408 505.129 214.408C549.691 214.408 585.816 177.846 585.816 132.744C585.816 87.6429 549.691 51.0811 505.129 51.0811C460.567 51.0811 424.442 87.6429 424.442 132.744ZM548.646 132.744C548.646 157.069 529.163 176.788 505.129 176.788C481.095 176.788 461.612 157.069 461.612 132.744C461.612 108.42 481.095 88.701 505.129 88.701C529.163 88.701 548.646 108.42 548.646 132.744Z" fill="#FCF3FF" fill-opacity="0.6"/>
<path d="M506.047 415.532C506.047 460.634 542.172 497.196 586.734 497.196C631.297 497.196 667.422 460.634 667.422 415.532C667.422 370.431 631.297 333.869 586.734 333.869C542.172 333.869 506.047 370.431 506.047 415.532ZM630.251 415.532C630.251 439.857 610.768 459.576 586.734 459.576C562.701 459.576 543.217 439.857 543.217 415.532C543.217 391.208 562.701 371.489 586.734 371.489C610.768 371.489 630.251 391.208 630.251 415.532Z" fill="#FCF3FF" fill-opacity="0.6"/>
<path d="M271.321 62.2805C271.321 89.599 249.563 111.745 222.725 111.745C195.886 111.745 174.129 89.599 174.129 62.2805C174.129 34.962 195.886 12.8159 222.725 12.8159C249.563 12.8159 271.321 34.962 271.321 62.2805ZM196.516 62.2805C196.516 77.0142 208.25 88.9582 222.725 88.9582C237.2 88.9582 248.934 77.0142 248.934 62.2805C248.934 47.5468 237.2 35.6028 222.725 35.6028C208.25 35.6028 196.516 47.5468 196.516 62.2805Z" fill="#FCF3FF" fill-opacity="0.6"/>
<path d="M219.057 165.41C219.057 186.801 236.093 204.141 257.109 204.141C278.124 204.141 295.16 186.801 295.16 165.41C295.16 144.019 278.124 126.678 257.109 126.678C236.093 126.678 219.057 144.019 219.057 165.41ZM277.631 165.41C277.631 176.946 268.443 186.299 257.109 186.299C245.775 186.299 236.586 176.946 236.586 165.41C236.586 153.873 245.775 144.521 257.109 144.521C268.443 144.521 277.631 153.873 277.631 165.41Z" fill="#FCF3FF" fill-opacity="0.6"/>
<path d="M372.178 28.2154C372.178 49.6063 389.215 66.9471 410.23 66.9471C431.245 66.9471 448.281 49.6063 448.281 28.2154C448.281 6.82442 431.245 -10.5164 410.23 -10.5164C389.215 -10.5164 372.178 6.82442 372.178 28.2154ZM430.752 28.2154C430.752 39.7521 421.564 49.1045 410.23 49.1045C398.896 49.1045 389.708 39.7521 389.708 28.2154C389.708 16.6786 398.896 7.32624 410.23 7.32624C421.564 7.32624 430.752 16.6786 430.752 28.2154Z" fill="#FCF3FF" fill-opacity="0.6"/>
<path d="M453.784 311.003C453.784 332.394 470.82 349.735 491.835 349.735C512.85 349.735 529.887 332.394 529.887 311.003C529.887 289.613 512.85 272.272 491.835 272.272C470.82 272.272 453.784 289.613 453.784 311.003ZM512.357 311.003C512.357 322.54 503.169 331.893 491.835 331.893C480.501 331.893 471.313 322.54 471.313 311.003C471.313 299.467 480.501 290.114 491.835 290.114C503.169 290.114 512.357 299.467 512.357 311.003Z" fill="#FCF3FF" fill-opacity="0.6"/>
<rect x="61.3496" y="-48.7812" width="92.6072" height="94.2627" rx="6" fill="#FCF3FF" fill-opacity="0.6"/>
<rect width="73.3522" height="73.7302" rx="6" transform="matrix(-1 0 0 1 384.1 78.1467)" fill="#FCF3FF" fill-opacity="0.6"/>
<rect width="73.3522" height="73.7302" rx="6" transform="matrix(-1 0 0 1 537.223 -59.0476)" fill="#FCF3FF" fill-opacity="0.6"/>
<rect width="73.3522" height="73.7302" rx="6" transform="matrix(-1 0 0 1 618.826 223.74)" fill="#FCF3FF" fill-opacity="0.6"/>
<path d="M831.546 196.208C831.546 253.68 785.569 300.27 728.853 300.27C672.137 300.27 626.16 253.68 626.16 196.208C626.16 138.736 672.137 92.1458 728.853 92.1458C785.569 92.1458 831.546 138.736 831.546 196.208ZM673.468 196.208C673.468 227.204 698.265 252.332 728.853 252.332C759.442 252.332 784.239 227.204 784.239 196.208C784.239 165.212 759.442 140.084 728.853 140.084C698.265 140.084 673.468 165.212 673.468 196.208Z" fill="#FCF3FF" fill-opacity="0.6"/>
<path d="M898.481 269.938C898.481 315.04 934.606 351.602 979.168 351.602C1023.73 351.602 1059.86 315.04 1059.86 269.938C1059.86 224.837 1023.73 188.275 979.168 188.275C934.606 188.275 898.481 224.837 898.481 269.938ZM1022.69 269.938C1022.69 294.263 1003.2 313.982 979.168 313.982C955.134 313.982 935.651 294.263 935.651 269.938C935.651 245.614 955.134 225.895 979.168 225.895C1003.2 225.895 1022.69 245.614 1022.69 269.938Z" fill="#FCF3FF" fill-opacity="0.6"/>
<path d="M1051.6 132.744C1051.6 177.845 1087.73 214.407 1132.29 214.407C1176.85 214.407 1212.98 177.845 1212.98 132.744C1212.98 87.6427 1176.85 51.0808 1132.29 51.0808C1087.73 51.0808 1051.6 87.6427 1051.6 132.744ZM1175.81 132.744C1175.81 157.068 1156.32 176.787 1132.29 176.787C1108.26 176.787 1088.77 157.068 1088.77 132.744C1088.77 108.42 1108.26 88.7007 1132.29 88.7007C1156.32 88.7007 1175.81 108.42 1175.81 132.744Z" fill="#FCF3FF" fill-opacity="0.6"/>
<path d="M1133.21 415.532C1133.21 460.633 1169.33 497.195 1213.89 497.195C1258.46 497.195 1294.58 460.633 1294.58 415.532C1294.58 370.431 1258.46 333.869 1213.89 333.869C1169.33 333.869 1133.21 370.431 1133.21 415.532ZM1257.41 415.532C1257.41 439.857 1237.93 459.575 1213.89 459.575C1189.86 459.575 1170.38 439.857 1170.38 415.532C1170.38 391.208 1189.86 371.489 1213.89 371.489C1237.93 371.489 1257.41 391.208 1257.41 415.532Z" fill="#FCF3FF" fill-opacity="0.6"/>
<path d="M898.481 62.2803C898.481 89.5988 876.724 111.745 849.885 111.745C823.046 111.745 801.289 89.5988 801.289 62.2803C801.289 34.9617 823.046 12.8157 849.885 12.8157C876.724 12.8157 898.481 34.9617 898.481 62.2803ZM823.676 62.2803C823.676 77.0139 835.41 88.9579 849.885 88.9579C864.36 88.9579 876.094 77.0139 876.094 62.2803C876.094 47.5466 864.36 35.6026 849.885 35.6026C835.41 35.6026 823.676 47.5466 823.676 62.2803Z" fill="#FCF3FF" fill-opacity="0.6"/>
<path d="M846.217 165.409C846.217 186.8 863.254 204.141 884.269 204.141C905.284 204.141 922.32 186.8 922.32 165.409C922.32 144.019 905.284 126.678 884.269 126.678C863.254 126.678 846.217 144.019 846.217 165.409ZM904.791 165.409C904.791 176.946 895.603 186.299 884.269 186.299C872.935 186.299 863.747 176.946 863.747 165.409C863.747 153.873 872.935 144.52 884.269 144.52C895.603 144.52 904.791 153.873 904.791 165.409Z" fill="#FCF3FF" fill-opacity="0.6"/>
<path d="M999.338 28.2151C999.338 49.606 1016.37 66.9468 1037.39 66.9468C1058.41 66.9468 1075.44 49.606 1075.44 28.2151C1075.44 6.82417 1058.41 -10.5166 1037.39 -10.5166C1016.37 -10.5166 999.338 6.82417 999.338 28.2151ZM1057.91 28.2151C1057.91 39.7518 1048.72 49.1042 1037.39 49.1042C1026.06 49.1042 1016.87 39.7518 1016.87 28.2151C1016.87 16.6784 1026.06 7.32599 1037.39 7.32599C1048.72 7.32599 1057.91 16.6784 1057.91 28.2151Z" fill="#FCF3FF" fill-opacity="0.6"/>
<path d="M1080.94 311.003C1080.94 332.394 1097.98 349.735 1119 349.735C1140.01 349.735 1157.05 332.394 1157.05 311.003C1157.05 289.612 1140.01 272.271 1119 272.271C1097.98 272.271 1080.94 289.612 1080.94 311.003ZM1139.52 311.003C1139.52 322.54 1130.33 331.892 1119 331.892C1107.66 331.892 1098.47 322.54 1098.47 311.003C1098.47 299.466 1107.66 290.114 1119 290.114C1130.33 290.114 1139.52 299.466 1139.52 311.003Z" fill="#FCF3FF" fill-opacity="0.6"/>
<rect x="688.51" y="-48.7815" width="92.6072" height="94.2627" rx="6" fill="#FCF3FF" fill-opacity="0.6"/>
<rect width="73.3522" height="73.7302" rx="6" transform="matrix(-1 0 0 1 1011.26 78.1462)" fill="#FCF3FF" fill-opacity="0.6"/>
<rect width="73.3522" height="73.7302" rx="6" transform="matrix(-1 0 0 1 1164.38 -59.0479)" fill="#FCF3FF" fill-opacity="0.6"/>
<rect width="73.3522" height="73.7302" rx="6" transform="matrix(-1 0 0 1 1245.99 223.74)" fill="#FCF3FF" fill-opacity="0.6"/>
<path d="M1477.96 241.696C1477.96 184.224 1431.99 137.634 1375.27 137.634C1318.56 137.634 1272.58 184.224 1272.58 241.696C1272.58 299.169 1318.56 345.759 1375.27 345.759C1431.99 345.759 1477.96 299.169 1477.96 241.696ZM1319.89 241.696C1319.89 210.7 1344.68 185.573 1375.27 185.573C1405.86 185.573 1430.66 210.7 1430.66 241.696C1430.66 272.693 1405.86 297.82 1375.27 297.82C1344.68 297.82 1319.89 272.693 1319.89 241.696Z" fill="#FCF3FF" fill-opacity="0.6"/>
<path d="M1544.9 167.966C1544.9 122.865 1581.02 86.3029 1625.59 86.3029C1670.15 86.3029 1706.27 122.865 1706.27 167.966C1706.27 213.068 1670.15 249.629 1625.59 249.629C1581.02 249.629 1544.9 213.068 1544.9 167.966ZM1669.1 167.966C1669.1 143.642 1649.62 123.923 1625.59 123.923C1601.55 123.923 1582.07 143.642 1582.07 167.966C1582.07 192.291 1601.55 212.009 1625.59 212.009C1649.62 212.009 1669.1 192.291 1669.1 167.966Z" fill="#FCF3FF" fill-opacity="0.6"/>
<path d="M1698.02 305.16C1698.02 260.059 1734.14 223.497 1778.71 223.497C1823.27 223.497 1859.39 260.059 1859.39 305.16C1859.39 350.262 1823.27 386.824 1778.71 386.824C1734.14 386.824 1698.02 350.262 1698.02 305.16ZM1822.22 305.16C1822.22 280.836 1802.74 261.117 1778.71 261.117C1754.67 261.117 1735.19 280.836 1735.19 305.16C1735.19 329.485 1754.67 349.204 1778.71 349.204C1802.74 349.204 1822.22 329.485 1822.22 305.16Z" fill="#FCF3FF" fill-opacity="0.6"/>
<path d="M1779.63 22.3724C1779.63 -22.729 1815.75 -59.2908 1860.31 -59.2908C1904.88 -59.2908 1941 -22.729 1941 22.3724C1941 67.4738 1904.88 104.036 1860.31 104.036C1815.75 104.036 1779.63 67.4738 1779.63 22.3724ZM1903.83 22.3724C1903.83 -1.95204 1884.35 -21.6709 1860.31 -21.6709C1836.28 -21.6709 1816.8 -1.95204 1816.8 22.3724C1816.8 46.6969 1836.28 66.4157 1860.31 66.4157C1884.35 66.4157 1903.83 46.6969 1903.83 22.3724Z" fill="#FCF3FF" fill-opacity="0.6"/>
<path d="M1544.9 375.624C1544.9 348.306 1523.14 326.16 1496.3 326.16C1469.46 326.16 1447.71 348.306 1447.71 375.624C1447.71 402.943 1469.46 425.089 1496.3 425.089C1523.14 425.089 1544.9 402.943 1544.9 375.624ZM1470.09 375.624C1470.09 360.891 1481.83 348.947 1496.3 348.947C1510.78 348.947 1522.51 360.891 1522.51 375.624C1522.51 390.358 1510.78 402.302 1496.3 402.302C1481.83 402.302 1470.09 390.358 1470.09 375.624Z" fill="#FCF3FF" fill-opacity="0.6"/>
<path d="M1492.64 272.495C1492.64 251.104 1509.67 233.763 1530.69 233.763C1551.7 233.763 1568.74 251.104 1568.74 272.495C1568.74 293.886 1551.7 311.227 1530.69 311.227C1509.67 311.227 1492.64 293.886 1492.64 272.495ZM1551.21 272.495C1551.21 260.958 1542.02 251.606 1530.69 251.606C1519.35 251.606 1510.16 260.958 1510.16 272.495C1510.16 284.032 1519.35 293.384 1530.69 293.384C1542.02 293.384 1551.21 284.032 1551.21 272.495Z" fill="#FCF3FF" fill-opacity="0.6"/>
<path d="M1645.76 409.689C1645.76 388.299 1662.79 370.958 1683.81 370.958C1704.82 370.958 1721.86 388.299 1721.86 409.689C1721.86 431.08 1704.82 448.421 1683.81 448.421C1662.79 448.421 1645.76 431.08 1645.76 409.689ZM1704.33 409.689C1704.33 398.153 1695.14 388.8 1683.81 388.8C1672.47 388.8 1663.29 398.153 1663.29 409.689C1663.29 421.226 1672.47 430.579 1683.81 430.579C1695.14 430.579 1704.33 421.226 1704.33 409.689Z" fill="#FCF3FF" fill-opacity="0.6"/>
<path d="M1727.36 126.901C1727.36 105.51 1744.4 88.1696 1765.41 88.1696C1786.43 88.1696 1803.46 105.51 1803.46 126.901C1803.46 148.292 1786.43 165.633 1765.41 165.633C1744.4 165.633 1727.36 148.292 1727.36 126.901ZM1785.94 126.901C1785.94 115.365 1776.75 106.012 1765.41 106.012C1754.08 106.012 1744.89 115.365 1744.89 126.901C1744.89 138.438 1754.08 147.79 1765.41 147.79C1776.75 147.79 1785.94 138.438 1785.94 126.901Z" fill="#FCF3FF" fill-opacity="0.6"/>
<rect width="92.6072" height="94.2627" rx="6" transform="matrix(1 0 0 -1 1334.93 486.686)" fill="#FCF3FF" fill-opacity="0.6"/>
<rect x="1657.68" y="359.758" width="73.3522" height="73.7302" rx="6" transform="rotate(-180 1657.68 359.758)" fill="#FCF3FF" fill-opacity="0.6"/>
<rect x="1810.8" y="496.952" width="73.3522" height="73.7302" rx="6" transform="rotate(-180 1810.8 496.952)" fill="#FCF3FF" fill-opacity="0.6"/>
<rect x="1892.4" y="214.164" width="73.3522" height="73.7302" rx="6" transform="rotate(-180 1892.4 214.164)" fill="#FCF3FF" fill-opacity="0.6"/>
</g>
</svg>
