<?xml version="1.0" encoding="utf-8"?>
<!-- Generator: Adobe Illustrator 24.3.0, SVG Export Plug-In . SVG Version: 6.00 Build 0)  -->
<svg version="1.1" id="Layer_1" xmlns="http://www.w3.org/2000/svg" xmlns:xlink="http://www.w3.org/1999/xlink" x="0px" y="0px"
	 viewBox="0 0 87.2 87.2" style="enable-background:new 0 0 87.2 87.2;" xml:space="preserve">
<style type="text/css">
	.st0{fill:#FF5A43;}
	.st1{fill:#333333;}
	.st2{fill:#FFFFFF;}
</style>
<g>
	<g>
		<path class="st0" d="M79.64,87.2H7.56C3.38,87.2,0,83.82,0,79.64V7.56C0,3.38,3.38,0,7.56,0h72.08c4.17,0,7.56,3.38,7.56,7.56
			v72.08C87.2,83.82,83.82,87.2,79.64,87.2z"/>
		<g>
			<ellipse class="st1" cx="35.79" cy="25.94" rx="5.2" ry="5.46"/>
			<path class="st1" d="M45.58,33.88c0,0-0.51,0.06-1.99,0.06c-1.49,0-2.06-0.06-2.06-0.06c-0.45-0.03-0.73-0.17-0.46-0.29l2.03-0.9
				c0.22-0.1,0.69-0.1,0.92,0l2.02,0.9C46.32,33.71,46.06,33.84,45.58,33.88z"/>
			<path class="st1" d="M46.04,34.98l-2.02,2.24c-0.23,0.25-0.7,0.25-0.92,0l-2.03-2.24c-0.27-0.31,0-0.73,0.46-0.73
				c0,0,0.64,0.14,2.06,0.14c1.42,0,1.99-0.14,1.99-0.14C46.05,34.25,46.32,34.67,46.04,34.98z"/>
			<path class="st1" d="M55.9,25.94c0,3.02-2.33,5.46-5.2,5.46c-2.87,0-5.2-2.44-5.2-5.46s2.33-5.46,5.2-5.46
				C53.57,20.48,55.9,22.92,55.9,25.94z"/>
			<path class="st1" d="M60.04,56.67c0,9.59-7.37,17.37-16.45,17.37c-9.09,0-16.46-7.78-16.46-17.37c0-9.59,7.37-17.36,16.46-17.36
				C52.67,39.31,60.04,47.08,60.04,56.67z"/>
			<path class="st2" d="M60.04,56.67c0,9.59-7.37,17.37-16.45,17.37c-9.09,0-16.46-7.78-16.46-17.37c0-9.59,7.37-17.36,16.46-17.36
				C52.67,39.31,60.04,47.08,60.04,56.67z"/>
			<path class="st1" d="M73.57,53.24c-3.78-2.98-6.92-6.73-9.18-11.01c-0.25-0.46-0.48-0.92-0.7-1.39
				c-0.01-0.02-0.03-0.03-0.04-0.05c-0.04-0.07-0.08-0.14-0.12-0.21c-2.45-6.21-2.93-11.04-3.02-13.08c0.02-0.35,0.03-0.7,0.03-1.05
				c0-9.37-7.59-16.96-16.95-16.96c-9.37,0-16.96,7.59-16.96,16.96c0,0,0.23,5.96-3.15,14.38c-0.31,0.58-0.6,1.18-0.86,1.79
				c-0.01,0.01-0.01,0.01-0.01,0.01c-2.25,4.12-5.32,7.72-8.98,10.61c-0.51,0.41-0.16,1.24,0.49,1.15c2.22-0.32,4.37-0.85,6.43-1.57
				C20.6,62.59,26.11,71,34.03,74.81c-0.7,0.76-1.13,1.78-1.13,2.9c0,0,0,0,0,0.01h8.63c0-0.01,0-0.01,0-0.01
				c0-0.28-0.03-0.55-0.08-0.82c0.7,0.07,1.42,0.11,2.14,0.11c0.67,0,1.34-0.03,1.99-0.1c-0.05,0.26-0.08,0.53-0.08,0.81
				c0,0,0,0,0,0.01h8.63c0-0.01,0-0.01,0-0.01c0-1.1-0.4-2.1-1.08-2.86c7.97-3.79,13.52-12.23,13.57-22.05
				c2.07,0.73,4.24,1.27,6.47,1.59C73.74,54.48,74.09,53.65,73.57,53.24z M50.7,20.48c2.87,0,5.2,2.44,5.2,5.46s-2.33,5.46-5.2,5.46
				c-2.87,0-5.2-2.44-5.2-5.46S47.83,20.48,50.7,20.48z M43.1,32.69c0.22-0.1,0.69-0.1,0.92,0l2.02,0.9
				c0.28,0.12,0.02,0.25-0.46,0.29c0,0-0.51,0.06-1.99,0.06c-1.49,0-2.06-0.06-2.06-0.06c-0.45-0.03-0.73-0.17-0.46-0.29L43.1,32.69
				z M46.04,34.98l-2.02,2.24c-0.23,0.25-0.7,0.25-0.92,0l-2.03-2.24c-0.27-0.31,0-0.73,0.46-0.73c0,0,0.64,0.14,2.06,0.14
				c1.42,0,1.99-0.14,1.99-0.14C46.05,34.25,46.32,34.67,46.04,34.98z M35.79,20.48c2.87,0,5.2,2.44,5.2,5.46s-2.33,5.46-5.2,5.46
				c-2.87,0-5.2-2.44-5.2-5.46S32.92,20.48,35.79,20.48z M43.59,74.04c-9.09,0-16.46-7.78-16.46-17.37
				c0-9.59,7.37-17.36,16.46-17.36c9.08,0,16.45,7.77,16.45,17.36C60.04,66.26,52.67,74.04,43.59,74.04z"/>
			<path class="st2" d="M55.9,25.94c0,3.02-2.33,5.46-5.2,5.46c-2.87,0-5.2-2.44-5.2-5.46s2.33-5.46,5.2-5.46
				C53.57,20.48,55.9,22.92,55.9,25.94z"/>
			<ellipse class="st1" cx="50.7" cy="25.94" rx="2.24" ry="2.35"/>
			<ellipse class="st2" cx="35.79" cy="25.94" rx="5.2" ry="5.46"/>
			<ellipse class="st1" cx="35.79" cy="25.94" rx="2.24" ry="2.35"/>
			<path class="st2" d="M45.58,33.88c0,0-0.51,0.06-1.99,0.06c-1.49,0-2.06-0.06-2.06-0.06c-0.45-0.03-0.73-0.17-0.46-0.29l2.03-0.9
				c0.22-0.1,0.69-0.1,0.92,0l2.02,0.9C46.32,33.71,46.06,33.84,45.58,33.88z"/>
			<path class="st2" d="M46.04,34.98l-2.02,2.24c-0.23,0.25-0.7,0.25-0.92,0l-2.03-2.24c-0.27-0.31,0-0.73,0.46-0.73
				c0,0,0.64,0.14,2.06,0.14c1.42,0,1.99-0.14,1.99-0.14C46.05,34.25,46.32,34.67,46.04,34.98z"/>
		</g>
	</g>
</g>
</svg>
