<svg width="304" height="244" viewBox="0 0 304 244" fill="none" xmlns="http://www.w3.org/2000/svg">
<path opacity="0.2" d="M210.391 100.39C208.975 101.736 207.109 102.631 205.115 102.845C204.757 102.883 204.33 102.924 203.907 102.91C203.924 102.304 203.738 101.691 203.342 101.23C203.066 100.91 202.595 100.579 202.137 100.593C201.63 100.607 201.42 101.264 201.431 101.671C201.455 102.704 202.319 103.186 203.256 103.365C203.242 103.423 203.225 103.482 203.204 103.537C202.925 104.305 202.113 104.787 201.338 105.021C199.454 105.593 197.213 105.224 195.381 104.656C192.867 103.874 189.961 101.991 187.227 102.456C187.034 102.018 186.796 101.605 186.541 101.237C185.715 100.045 184.53 99.0811 183.174 98.4716C180.46 97.2492 177.347 97.5626 175.061 99.4014C174.541 99.1259 173.963 98.9227 173.336 98.8125C171.848 98.5508 170.251 98.8194 169.056 99.7354C167.923 100.603 167.234 101.98 167.207 103.361C167.193 104.057 167.362 104.725 167.685 105.348C167.85 105.668 168.353 105.386 168.188 105.069C167.506 103.764 167.744 102.177 168.611 100.999C169.534 99.7457 171.098 99.1672 172.675 99.2911C173.377 99.3462 174.021 99.5287 174.6 99.8111C172.561 101.739 171.421 104.897 172.544 107.517C173.088 108.788 174.403 109.776 175.874 109.188C177.268 108.63 178.036 107.142 178.219 105.785C178.535 103.451 177.523 101.034 175.574 99.7181C176.318 99.1465 177.175 98.7126 178.102 98.4785C180.984 97.7485 184.203 99.057 185.901 101.34C186.166 101.698 186.435 102.129 186.652 102.597C186.214 102.728 185.78 102.927 185.353 103.21C184.334 103.885 183.27 105.586 184.475 106.577C185.567 107.476 187.147 106.584 187.526 105.462C187.788 104.687 187.702 103.836 187.44 103.031C188.222 102.921 189.041 102.982 189.782 103.155C191.617 103.582 193.242 104.553 195.019 105.135C196.665 105.675 198.518 105.978 200.26 105.799C201.513 105.672 202.929 105.207 203.579 104.091C203.697 103.892 203.779 103.671 203.834 103.444C204.013 103.458 204.192 103.461 204.361 103.458C205.949 103.416 207.526 102.979 208.893 102.208C209.592 101.815 210.229 101.333 210.8 100.789C211.069 100.531 210.656 100.135 210.391 100.39ZM177.578 106.106C177.289 107.452 175.846 109.494 174.159 108.588C172.823 107.872 172.613 105.961 172.74 104.663C172.912 102.945 173.797 101.288 175.12 100.09C177.075 101.34 178.071 103.805 177.578 106.106ZM186.82 105.62C186.462 106.237 185.388 106.694 184.785 106.088C184.086 105.383 184.885 104.26 185.498 103.792C185.904 103.478 186.376 103.268 186.875 103.137C187.168 103.981 187.247 104.883 186.82 105.62ZM202.34 102.387C202.144 102.194 201.737 101.343 202.175 101.147C202.385 101.054 202.836 101.509 202.939 101.64C203.204 101.98 203.328 102.418 203.321 102.848C202.946 102.779 202.598 102.642 202.34 102.387Z" fill="white"/>
<path opacity="0.1" d="M188.793 32.2032C188.187 33.8044 186.789 35.013 185.156 35.4951C183.304 36.0426 181.617 35.4125 179.991 34.5172C178.314 33.5978 176.713 32.7645 174.778 32.582C172.984 32.4132 171.045 32.7369 169.461 33.6219C169.269 33.7286 169.083 33.8526 168.904 33.9869C168.817 33.7975 168.721 33.615 168.611 33.4394C167.764 32.0758 166.38 31.1977 164.792 30.998C160.419 30.447 157.01 33.8974 153.212 35.3815C150.664 36.3766 148.136 36.0495 145.516 35.5571C145.168 35.4916 145.017 36.0254 145.368 36.0908C147.344 36.4661 149.366 36.8346 151.377 36.4833C153.239 36.1597 154.937 35.2437 156.559 34.3105C159.52 32.6061 164.083 29.8341 167.24 32.6646C167.76 33.1329 168.198 33.7286 168.463 34.3794C168.18 34.6756 167.953 35.0199 167.833 35.4193C167.605 36.1769 167.757 37.0205 168.353 37.5611C168.487 37.6817 168.69 37.661 168.79 37.5061C169.358 36.5832 169.413 35.5192 169.11 34.5309C169.692 34.0316 170.46 33.7286 171.176 33.5048C173.046 32.9229 175.091 32.9607 176.937 33.615C178.638 34.2141 180.074 35.3815 181.789 35.9531C183.211 36.4283 184.726 36.3456 186.097 35.7361C187.581 35.075 188.755 33.8698 189.333 32.3478C189.454 32.0172 188.917 31.8726 188.793 32.2032ZM168.659 35.013C168.793 35.6294 168.759 36.2664 168.494 36.869C168.146 36.3008 168.273 35.564 168.659 35.013Z" fill="#FFACA1"/>
<path opacity="0.2" d="M99.9524 118.633C99.3464 120.235 97.9483 121.443 96.3162 121.925C94.4636 122.473 92.7763 121.843 91.151 120.947C89.4741 120.028 87.8729 119.195 85.9377 119.012C84.1437 118.843 82.205 119.167 80.621 120.052C80.4282 120.159 80.2423 120.283 80.0632 120.417C79.9771 120.228 79.8807 120.045 79.7705 119.87C78.9234 118.506 77.5392 117.628 75.9518 117.428C71.5786 116.877 68.1696 120.328 64.3715 121.812C61.8234 122.807 59.2959 122.48 56.6755 121.987C56.3277 121.922 56.1762 122.456 56.5274 122.521C58.5039 122.896 60.5252 123.265 62.5362 122.914C64.3991 122.59 66.0967 121.674 67.7185 120.741C70.6799 119.036 75.2424 116.264 78.4 119.095C78.92 119.563 79.3573 120.159 79.6225 120.81C79.3401 121.106 79.1128 121.45 78.9923 121.85C78.765 122.607 78.9165 123.451 79.5123 123.991C79.6466 124.112 79.8497 124.091 79.9496 123.936C80.5177 123.013 80.5728 121.949 80.2698 120.961C80.8518 120.462 81.6196 120.159 82.3359 119.935C84.2056 119.353 86.251 119.391 88.0967 120.045C89.7978 120.644 91.2337 121.812 92.9485 122.383C94.3706 122.858 95.8857 122.776 97.2562 122.166C98.7403 121.505 99.9145 120.3 100.493 118.778C100.614 118.447 100.076 118.303 99.9524 118.633ZM79.8187 121.443C79.953 122.06 79.9186 122.697 79.6534 123.299C79.3056 122.731 79.4331 121.994 79.8187 121.443Z" fill="#FFACA1"/>
<path opacity="0.2" d="M221.413 166.885C222.322 166.852 222.564 165.946 222.133 165.483C222.14 165.449 222.14 165.409 222.147 165.375C223.284 165.241 223.284 163.684 222.059 163.711C221.932 163.711 221.804 163.711 221.669 163.718C222.463 163.369 222.329 162.107 221.245 162.134C211.777 162.362 202.316 162.583 192.848 162.812C191.678 162.838 191.637 164.167 192.606 164.442C192.256 164.442 191.9 164.442 191.55 164.442C190.305 164.436 190.318 166.066 191.55 166.113C192.875 166.167 194.208 166.221 195.533 166.261C195.109 166.281 194.692 166.295 194.268 166.315C193.037 166.362 193.023 168.04 194.268 167.986C203.319 167.617 212.363 167.248 221.413 166.885Z" fill="#FED9D8"/>
<path opacity="0.5" d="M90.7025 94.3006C88.008 94.5893 85.07 95.2679 82.3603 94.9944C82.0153 94.9589 81.8022 95.1311 81.7007 95.3641C80.9294 95.4299 80.3255 95.7996 80.4473 96.7973C80.5792 97.9063 82.0863 99.1167 82.751 99.9219C83.9841 101.416 85.2172 102.915 86.4451 104.409C86.7293 104.758 87.4397 104.677 87.6224 104.257C88.9924 101.173 91.1541 98.5039 91.4484 95.04C91.4839 94.6753 91.083 94.2601 90.7025 94.3006ZM86.1052 101.041C86.298 101.396 86.6988 101.507 87.0236 101.396C87.0388 101.527 87.0591 101.659 87.0794 101.786C86.8612 101.684 86.5923 101.684 86.3842 101.791C86.3589 101.664 86.2929 101.542 86.1711 101.431C86.0595 101.325 85.9884 101.193 85.9479 101.046C85.9986 101.046 86.0544 101.051 86.1052 101.041ZM88.0232 96.5137C87.9674 96.6453 87.937 96.777 87.9167 96.9188C87.8355 96.7669 87.734 96.615 87.6071 96.4681C87.5107 96.3567 87.3737 96.2909 87.2316 96.2655C87.5767 96.22 87.9218 96.1693 88.2617 96.1187C88.1653 96.2402 88.0791 96.3668 88.0232 96.5137ZM88.4292 99.5472C88.4241 99.4813 88.414 99.4155 88.4089 99.3497C88.414 99.137 88.4241 98.9243 88.4444 98.7065C88.4495 98.671 88.4444 98.6356 88.4444 98.6001C88.4799 98.5951 88.5154 98.5951 88.551 98.59C88.6068 98.7014 88.6829 98.7926 88.7793 98.8584C88.6626 99.0914 88.5459 99.3193 88.4292 99.5472Z" fill="#CCA085"/>
<path opacity="0.2" d="M52.9353 139.755C49.3988 140.14 45.5427 141.044 41.9862 140.68C41.5333 140.632 41.2536 140.862 41.1204 141.173C40.1081 141.26 39.3156 141.753 39.4754 143.084C39.6486 144.562 41.6266 146.176 42.499 147.25C44.1174 149.242 45.7358 151.24 47.3476 153.232C47.7205 153.698 48.6529 153.59 48.8927 153.03C50.6909 148.918 53.528 145.359 53.9143 140.74C53.9609 140.254 53.4348 139.701 52.9353 139.755ZM46.9013 148.742C47.1544 149.215 47.6805 149.363 48.1068 149.215C48.1268 149.39 48.1534 149.566 48.1801 149.735C47.8937 149.6 47.5407 149.6 47.2676 149.741C47.2343 149.573 47.1477 149.41 46.9879 149.262C46.8414 149.12 46.7481 148.945 46.6949 148.749C46.7615 148.749 46.8347 148.756 46.9013 148.742ZM49.4188 142.705C49.3455 142.881 49.3056 143.057 49.279 143.246C49.1724 143.043 49.0392 142.84 48.8727 142.645C48.7461 142.496 48.5663 142.408 48.3798 142.375C48.8327 142.314 49.2856 142.246 49.7318 142.179C49.6053 142.341 49.4921 142.51 49.4188 142.705ZM49.9516 146.75C49.9449 146.662 49.9316 146.575 49.925 146.487C49.9316 146.203 49.9449 145.92 49.9716 145.629C49.9782 145.582 49.9716 145.535 49.9716 145.487C50.0182 145.481 50.0648 145.481 50.1115 145.474C50.1847 145.622 50.2846 145.744 50.4111 145.832C50.258 146.142 50.1048 146.446 49.9516 146.75Z" fill="#CCA085"/>
<path opacity="0.2" d="M45.8545 178.131C43.4433 177.479 41.2928 178.925 40.4945 181.103C39.3052 184.346 39.2236 187.684 39.8101 191.054C40.2011 193.312 43.0686 194.583 45.1703 194.027C47.6304 193.375 48.6079 191.07 48.2169 188.797C47.891 186.985 48.2494 185.157 48.9011 183.36C49.6831 181.199 48.0051 178.703 45.8545 178.131Z" fill="#FFEDEB"/>
<path d="M227.81 136.888C224.998 136.888 224.998 134.046 222.187 134.046C219.375 134.046 219.375 136.888 216.563 136.888C213.751 136.888 213.751 134.046 210.94 134.046C208.128 134.046 208.128 136.888 205.316 136.888C202.504 136.888 202.504 134.046 199.692 134.046C196.881 134.046 196.876 136.888 194.065 136.888" stroke="#E98C95" stroke-miterlimit="10"/>
<path d="M227.81 133.37C224.998 133.37 224.998 130.529 222.187 130.529C219.375 130.529 219.375 133.37 216.563 133.37C213.751 133.37 213.751 130.529 210.94 130.529C208.128 130.529 208.128 133.37 205.316 133.37C202.504 133.37 202.504 130.529 199.692 130.529C196.881 130.529 196.876 133.37 194.065 133.37" stroke="#E98C95" stroke-miterlimit="10"/>
<path d="M227.81 129.852C224.998 129.852 224.998 127.011 222.187 127.011C219.375 127.011 219.375 129.852 216.563 129.852C213.751 129.852 213.751 127.011 210.94 127.011C208.128 127.011 208.128 129.852 205.316 129.852C202.504 129.852 202.504 127.011 199.692 127.011C196.881 127.011 196.876 129.852 194.065 129.852" stroke="#E98C95" stroke-miterlimit="10"/>
<path d="M76.9882 62.1233C75.2667 62.1233 75.2667 60.3838 73.5452 60.3838C71.8237 60.3838 71.8237 62.1233 70.1022 62.1233C68.3807 62.1233 68.3807 60.3838 66.6592 60.3838C64.9377 60.3838 64.9377 62.1233 63.2162 62.1233C61.4947 62.1233 61.4947 60.3838 59.7732 60.3838C58.0517 60.3838 58.0491 62.1233 56.3276 62.1233" stroke="#E98C95" stroke-miterlimit="10"/>
<path d="M76.9882 59.9695C75.2667 59.9695 75.2667 58.23 73.5452 58.23C71.8237 58.23 71.8237 59.9695 70.1022 59.9695C68.3807 59.9695 68.3807 58.23 66.6592 58.23C64.9377 58.23 64.9377 59.9695 63.2162 59.9695C61.4947 59.9695 61.4947 58.23 59.7732 58.23C58.0517 58.23 58.0491 59.9695 56.3276 59.9695" stroke="#E98C95" stroke-miterlimit="10"/>
<path d="M76.9882 57.8157C75.2667 57.8157 75.2667 56.0762 73.5452 56.0762C71.8237 56.0762 71.8237 57.8157 70.1022 57.8157C68.3807 57.8157 68.3807 56.0762 66.6592 56.0762C64.9377 56.0762 64.9377 57.8157 63.2162 57.8157C61.4947 57.8157 61.4947 56.0762 59.7732 56.0762C58.0517 56.0762 58.0491 57.8157 56.3276 57.8157" stroke="#E98C95" stroke-miterlimit="10"/>
<g opacity="0.5">
<rect x="96.4619" y="186.896" width="144.184" height="27.355" rx="13.6775" transform="rotate(-57.0287 96.4619 186.896)" fill="#8F35B1"/>
<rect x="92.1394" y="186.375" width="144.184" height="27.355" rx="13.6775" transform="rotate(-65.892 92.1394 186.375)" fill="#9D348F"/>
<rect x="93.9404" y="186.823" width="144.184" height="27.355" rx="13.6775" transform="rotate(-74.9833 93.9404 186.823)" fill="#A93373"/>
<rect x="93.9404" y="189.083" width="144.184" height="27.355" rx="13.6775" transform="rotate(-85.2137 93.9404 189.083)" fill="#B74884"/>
</g>
<g opacity="0.4">
<g opacity="0.2">
<path opacity="0.4" d="M118.998 75.3664C121.752 72.6287 125.787 71.5437 129.375 72.5736C130.537 72.9084 131.706 73.4508 132.89 73.2559C133.656 73.1287 134.352 72.7049 135.06 72.3616C138.075 70.908 141.66 70.9631 144.637 72.5057C144.314 69.145 148.044 66.2334 150.814 67.6786C150.048 65.7927 151.548 63.5253 153.371 63.0294C155.191 62.5336 157.094 63.3134 158.756 64.2712C160.191 62.1691 163.079 61.4741 165.179 62.7243C165.764 59.2449 168.356 56.2782 171.491 55.5069C174.625 54.7313 178.118 56.1977 179.991 59.0711C181.383 56.7571 184.687 56.2274 186.618 58.0116C187.156 53.1717 190.545 48.9252 194.772 47.4885C199.003 46.0475 203.853 47.3613 207.153 50.6162C210.453 53.8668 212.168 58.8931 211.868 63.7584C217.545 61.9657 224.149 66.7971 224.853 73.2559C227.503 72.6414 230.349 73.1203 232.714 74.5739C233.222 74.8875 233.737 75.2859 233.922 75.892C234.107 76.498 233.749 77.3202 233.168 77.3075" fill="#FEFEFE"/>
</g>
<g opacity="0.4">
<path opacity="0.2" d="M126.306 112.548C124.688 109.848 121.509 108.786 119.013 110.108C118.471 110.396 117.932 110.79 117.338 110.769C116.719 110.748 116.179 110.277 115.65 109.876C112.398 107.414 108.099 107.228 104.716 109.408C104.828 106.823 103.51 104.239 101.579 103.247C99.6482 102.255 97.2388 102.938 95.8441 104.861C93.508 99.9134 89.2348 96.3371 84.6201 95.8975C80.0054 95.458 75.2056 98.338 72.8855 103.303C72.5823 103.95 72.2472 104.699 71.6536 104.844C71.1653 104.96 70.693 104.611 70.2845 104.263C66.6336 101.162 63.2284 96.7942 58.8084 96.5094C54.6404 96.2386 50.7087 100.135 49.4481 105.062C49.2853 105.698 49.1098 106.426 48.6215 106.711C48.2354 106.936 47.779 106.795 47.3673 106.648C45.3504 105.93 43.276 105.15 41.1888 105.448C39.1049 105.747 36.989 107.453 36.606 110.006C32.9424 107.987 28.5319 108.181 24.9927 110.509" fill="#FEFEFE"/>
</g>
<g opacity="0.4">
<path opacity="0.4" d="M109.356 17.8176C110.333 16.8768 112.249 16.5038 113.756 16.9658C114.083 17.0675 114.41 17.2031 114.764 17.1988C115.137 17.1904 115.464 17.0251 115.783 16.8895C117.745 16.0291 120.337 15.9656 122.376 16.7284C122.31 15.8257 123.103 14.923 124.268 14.5797C125.434 14.2364 126.884 14.4695 127.726 15.1434C129.134 13.4143 131.71 12.1683 134.495 12.0157C137.28 11.8631 140.172 12.8676 141.572 14.6009C141.753 14.8255 141.957 15.0883 142.314 15.1392C142.607 15.1815 142.895 15.0586 143.141 14.9357C145.341 13.855 147.395 12.3293 150.061 12.2276C152.572 12.1344 154.945 13.4905 155.707 15.2112C155.807 15.4316 155.911 15.6859 156.207 15.7876C156.441 15.8681 156.715 15.8172 156.965 15.7664C158.18 15.5163 159.434 15.2451 160.691 15.3468C161.949 15.4528 163.226 16.0461 163.453 16.9361C165.661 16.2326 168.322 16.3004 170.457 17.1099" fill="#FEFEFE"/>
</g>
<g opacity="0.4">
<path opacity="0.4" d="M99.6146 44.7214C97.4884 42.5341 94.2893 41.6953 91.5004 42.5991C91.1493 42.7148 90.7785 42.8522 90.4209 42.7546C89.9221 42.6136 89.6334 42.0677 89.325 41.6157C88.3931 40.2527 86.8149 39.4537 85.2662 39.5658C83.7175 39.6779 82.2475 40.6938 81.483 42.1797C79.6685 41.2723 78.6907 39.056 77.0305 37.8448C75.6426 36.8325 73.7985 36.6192 72.2498 37.2953C70.7011 37.9714 69.4904 39.5152 69.1065 41.3012C67.4626 39.7502 64.6835 39.9852 63.2759 41.7965C61.2842 37.5447 57.7209 34.2257 53.5867 32.7651C50.8042 31.7853 47.487 31.7347 45.2492 33.8027C43.5463 35.3755 42.7917 37.8448 42.2043 40.2093C40.1897 38.1594 36.7051 38.2244 34.7561 40.3467C34.2705 40.8746 33.8374 41.529 33.1877 41.7459C32.2264 42.0641 31.2814 41.3048 30.3791 40.824C28.3316 39.7357 25.7166 40.1045 23.9874 41.7278C23.6068 42.0821 23.2524 42.5051 22.7766 42.6678C22.1499 42.8848 21.4871 42.6028 20.8506 42.4292C18.685 41.8363 16.2636 42.5594 14.6624 44.2731" fill="#FEFEFE"/>
</g>
</g>
<path d="M192.86 66.2031C196.081 66.6375 198.126 64.8933 198.484 62.2394C198.769 60.1265 197.521 58.0955 195.73 57.5653C197.373 57.4458 198.959 56.1905 199.251 54.0261C199.578 51.6041 198.09 49.4095 194.946 48.9855L186.495 47.8455L184.176 65.0319L192.86 66.2031ZM193.368 56.0136L188.55 55.3637L189.151 50.9061L193.97 51.556C195.516 51.7645 196.263 52.8361 196.089 54.1244C195.916 55.4127 194.914 56.2222 193.368 56.0136ZM192.496 63.4518L187.549 62.7845L188.192 58.0177L193.139 58.685C194.866 58.9179 195.622 60.1217 195.448 61.41C195.246 62.9045 194.145 63.6743 192.496 63.4518ZM211.475 68.7139L211.833 66.06L204.257 65.0382L206.217 50.5058L203.203 50.0991L200.885 67.2855L211.475 68.7139ZM221.387 70.3658C226.541 71.0609 230.681 67.789 231.373 62.6615C232.064 57.5339 228.939 53.2819 223.785 52.5868C218.632 51.8917 214.492 55.1636 213.8 60.2912C213.108 65.4187 216.234 69.6707 221.387 70.3658ZM221.749 67.6861C218.27 67.2169 216.416 64.2383 216.892 60.7082C217.372 57.1524 219.945 54.7974 223.424 55.2666C226.877 55.7323 228.76 58.6886 228.281 62.2444C227.805 65.7744 225.201 68.1518 221.749 67.6861ZM241.09 73.0234C246.243 73.7185 250.384 70.4466 251.075 65.319C251.767 60.1914 248.641 55.9395 243.488 55.2444C238.335 54.5493 234.194 57.8212 233.502 62.9487C232.811 68.0763 235.936 72.3283 241.09 73.0234ZM241.451 70.3436C237.973 69.8744 236.118 66.8958 236.594 63.3658C237.074 59.81 239.648 57.4549 243.126 57.9241C246.579 58.3898 248.463 61.3461 247.983 64.9019C247.507 68.432 244.904 70.8093 241.451 70.3436ZM270.677 76.6993L272.995 59.513L268.743 58.9395L262.528 69.6185L259.39 57.6779L255.139 57.1045L252.82 74.2908L255.835 74.6975L257.556 61.943L261.092 75.4065L262.38 75.5802L269.382 63.5382L267.662 76.2927L270.677 76.6993ZM277.24 67.3265C277.24 67.3265 278.871 62.0371 278.93 61.5991C279.042 60.7746 278.44 59.985 277.615 59.8738C276.765 59.7591 276.001 60.3645 275.89 61.189C275.831 61.627 276.003 67.1597 276.003 67.1597L277.24 67.3265ZM283.198 78.703C286.547 79.1549 288.603 77.7268 288.898 75.5366C289.565 70.5894 281.819 71.2236 282.118 69.0077C282.236 68.1316 283.225 67.6091 284.642 67.8003C286.188 68.0088 287.493 68.8406 288.125 69.7917L289.516 68.0379C288.518 66.8801 287.021 65.9174 284.908 65.6324C281.765 65.2084 279.776 66.7242 279.502 68.7597C278.859 73.5266 286.619 72.7893 286.289 75.2371C286.157 76.2163 285.238 76.8007 283.615 76.5818C281.992 76.3628 280.38 75.2797 279.626 74.2597L278.125 76.0511C279.243 77.4875 281.085 78.418 283.198 78.703ZM187.011 97.7039L188.971 83.1715L194.176 83.8736L194.534 81.2196L181.109 79.4089L180.751 82.0628L185.956 82.7649L183.996 97.2973L187.011 97.7039ZM202.81 99.835L203.922 91.5897C204.374 88.2401 202.109 86.7539 199.352 86.382C197.368 86.1144 195.477 86.5152 193.85 87.6862L194.704 89.7167C195.929 88.8062 197.209 88.4542 198.601 88.6419C200.327 88.8747 201.394 89.9107 201.2 91.3536L200.949 93.2088C200.19 92.0307 198.82 91.295 197.145 91.0691C195.11 90.7945 192.657 91.6705 192.271 94.5306C191.899 97.2876 194.008 98.9626 196.043 99.2371C197.693 99.4596 199.215 99.0616 200.286 98.1303L200.105 99.4701L202.81 99.835ZM197.35 97.5244C195.83 97.3194 194.814 96.2904 194.995 94.9505C195.179 93.5849 196.431 92.8618 197.951 93.0668C199.137 93.2267 200.237 93.8211 200.741 94.7548L200.487 96.6358C199.754 97.4027 198.535 97.6843 197.35 97.5244ZM217.217 101.778L213.493 94.7695L218.613 89.2948L215.572 88.8847L212.065 92.7142L209.671 88.0888L206.631 87.6787L210.117 94.3143L204.695 100.089L207.709 100.496L211.575 96.3473L214.177 101.368L217.217 101.778ZM223.77 102.977C227.764 103.516 230.586 100.879 231.069 97.2977C231.549 93.7419 229.526 90.452 225.532 89.9133C221.59 89.3816 218.743 92.0146 218.263 95.5704C217.78 99.1519 219.828 102.445 223.77 102.977ZM224.093 100.581C221.8 100.271 220.773 98.1651 221.071 95.9492C221.367 93.759 222.916 92.0003 225.209 92.3096C227.528 92.6224 228.556 94.7287 228.26 96.9189C227.961 99.1348 226.412 100.894 224.093 100.581ZM244.071 105.4L245.252 96.6398C245.597 94.0889 244.451 92.4652 241.772 92.1037C239.813 91.8396 238.077 92.6548 237.12 93.5227L237.35 91.8221L234.644 91.4572L232.965 103.902L235.671 104.267L236.842 95.584C237.575 94.8171 238.872 94.1525 240.263 94.3402C241.783 94.5452 242.676 95.3215 242.415 97.254L241.365 105.035L244.071 105.4ZM253.16 106.941C257.154 107.48 259.976 104.844 260.459 101.262C260.939 97.7061 258.916 94.4163 254.922 93.8776C250.98 93.3458 248.133 95.9788 247.653 99.5346C247.17 103.116 249.218 106.41 253.16 106.941ZM253.484 104.545C251.19 104.236 250.163 102.129 250.462 99.9134C250.757 97.7233 252.306 95.9646 254.599 96.2739C256.918 96.5867 257.946 98.6929 257.65 100.883C257.352 103.099 255.803 104.858 253.484 104.545ZM280.315 110.289L281.528 101.297C281.868 98.7714 280.747 97.3609 278.454 97.0516C276.598 96.8013 274.793 97.7384 273.919 98.7748C273.691 97.3536 272.682 96.273 270.827 96.0228C268.946 95.7691 267.13 96.7835 266.51 97.4869L266.74 95.7863L264.034 95.4214L262.355 107.867L265.061 108.232L266.232 99.5483C266.91 98.8002 268.133 98.0994 269.318 98.2592C270.787 98.4573 271.258 99.4391 271.077 100.779L269.982 108.895L272.688 109.26L273.863 100.551C274.511 99.8255 275.76 99.1281 276.971 99.2915C278.414 99.4861 278.885 100.468 278.704 101.808L277.609 109.924L280.315 110.289ZM282.621 115.559C282.994 115.714 283.731 115.892 284.117 115.944C286.053 116.179 287.638 115.711 288.773 113.713L296.758 99.8353L293.846 99.4426L288.955 108.28L286.58 98.4625L283.694 98.0733L287.097 111.361L286.287 112.695C285.815 113.471 285.213 113.652 284.363 113.537C284.054 113.496 283.626 113.359 283.36 113.192L282.621 115.559Z" fill="#EB5757"/>
<path d="M80.9123 34.2839C85.5515 33.6667 87.236 30.9508 86.8554 28.09C86.0016 21.6726 76.2658 24.9875 75.8406 21.7917C75.6691 20.503 76.69 19.5016 78.4683 19.265C80.2724 19.025 82.1846 19.4001 83.7031 20.562L85.1316 18.09C83.3279 16.7562 81.0498 16.1938 78.3695 16.5504C74.6066 17.051 72.3981 19.5743 72.7753 22.4093C73.6188 28.7494 83.3461 25.1734 83.8261 28.7816C83.977 29.9156 83.1588 31.2572 80.6846 31.5864C78.2877 31.9053 76.2846 31.0439 74.9311 29.9388L73.5644 32.4812C75.301 33.9026 77.7423 34.7057 80.9123 34.2839ZM97.1593 31.8076L95.2254 17.2717L100.432 16.5791L100.078 13.9245L86.6507 15.7109L87.0038 18.3655L92.21 17.6729L94.1438 32.2088L97.1593 31.8076ZM116.699 29.2081L116.346 26.5535L107.583 27.7193L106.949 22.9513L115.531 21.8095L115.178 19.1549L106.595 20.2967L106.002 15.838L114.765 14.6722L114.412 12.0175L102.634 13.5845L104.921 30.7751L116.699 29.2081ZM135.259 26.7388L126.22 10.4466L122.457 10.9472L117.991 29.0361L121.419 28.5801L122.243 25.1131L130.13 24.0639L131.831 27.1948L135.259 26.7388ZM128.926 21.5225L122.741 22.3454L124.743 13.7381L128.926 21.5225ZM154.998 24.1128L152.71 6.92227L148.458 7.48803L145.273 19.4264L139.102 8.7327L134.85 9.29846L137.137 26.489L140.152 26.0878L138.455 13.3302L145.41 25.3883L146.699 25.2169L150.285 11.7564L151.982 24.514L154.998 24.1128Z" fill="#333333"/>
<path d="M15.7507 110.077C18.9168 109.343 20.2127 106.988 19.6083 104.379C19.1272 102.302 17.2415 100.844 15.3786 100.982C16.8727 100.289 17.9119 98.5536 17.419 96.426C16.8674 94.045 14.6991 92.519 11.6089 93.2349L3.30095 95.1595L7.2147 112.054L15.7507 110.077ZM12.6205 100.367L7.88396 101.464L6.86885 97.0819L11.6054 95.9846C13.1252 95.6325 14.2035 96.3702 14.4969 97.6367C14.7902 98.9031 14.1403 100.015 12.6205 100.367ZM14.4371 107.632L9.57385 108.759L8.48833 104.073L13.3515 102.946C15.0486 102.553 16.1816 103.411 16.475 104.678C16.8153 106.147 16.0581 107.257 14.4371 107.632ZM26.6026 107.563L22.6889 90.6681L19.7254 91.3546L23.6391 108.249L26.6026 107.563ZM36.4757 105.276C41.7442 104.055 44.5117 99.7576 43.3617 94.7931C42.2116 89.8286 37.8304 87.1605 32.562 88.381L26.2803 89.8362L30.1941 106.731L36.4757 105.276ZM35.8713 102.667L32.5532 103.435L29.8482 91.7585L33.1663 90.9899C36.9404 90.1156 39.5652 92.2298 40.3222 95.4972C41.0615 98.6887 39.5441 101.816 35.8713 102.667ZM59.7523 99.8834L59.1479 97.2745L50.536 99.2695L49.4505 94.5836L57.8851 92.6296L57.2807 90.0207L48.8461 91.9747L47.831 87.5927L56.4429 85.5977L55.8385 82.9888L44.2631 85.6703L48.1768 102.565L59.7523 99.8834Z" fill="#2F80ED"/>
<g clip-path="url(#clip0)">
<path d="M119.069 191.39C116.611 191.39 114.153 191.374 111.695 191.403C111.197 191.407 111.127 191.241 111.168 190.809C111.305 189.268 111.791 187.86 112.729 186.626C112.933 186.36 112.978 186.264 112.621 186.082C100.759 179.855 93.348 170.106 89.9435 157.229C88.8266 153.001 88.4405 148.677 88.565 144.307C88.5733 144.024 88.4903 143.846 88.2993 143.663C85.8663 141.399 85.0235 138.541 85.3016 135.314C85.5051 132.963 86.2649 130.803 87.9049 129.046C88.9844 127.891 90.2756 127.235 91.9156 127.692C92.1274 127.75 92.1938 127.667 92.2852 127.492C95.2122 121.718 97.0848 115.587 98.4009 109.274C99.0984 105.921 99.5635 102.536 99.6672 99.1133C99.7171 97.4726 99.6922 95.8318 99.8873 94.1952C100.581 88.3342 102.744 83.0713 106.431 78.473C111.309 72.396 117.591 68.5371 125.272 67.2494C135.507 65.538 144.541 68.238 152.135 75.3493C157.354 80.2342 160.393 86.3196 161.456 93.3811C161.776 95.5037 161.755 97.6429 161.726 99.7862C161.697 102.225 162.095 104.646 162.511 107.051C163.416 112.327 164.869 117.452 166.762 122.458C167.256 123.762 168.045 124.925 168.585 126.209C168.651 126.366 168.755 126.421 168.929 126.412C170.802 126.3 172.263 127.172 173.509 128.439C175.398 130.362 176.465 132.68 176.502 135.393C176.536 138.089 175.332 140.178 173.144 141.707C172.845 141.914 172.733 142.122 172.757 142.475C173.206 148.436 172.537 154.272 170.731 159.963C168.319 167.552 164.217 174.081 158.359 179.485C155.465 182.156 152.255 184.379 148.722 186.119C148.328 186.314 148.323 186.435 148.568 186.767C149.478 188.001 149.93 189.405 150.034 190.929C150.055 191.249 150.001 191.39 149.619 191.39C144.62 191.378 139.621 191.378 134.622 191.39C134.257 191.39 134.145 191.282 134.228 190.938C134.257 190.809 134.244 190.672 134.265 190.543C134.315 190.273 134.228 190.215 133.945 190.24C132.837 190.339 131.728 190.398 130.616 190.385C129.519 190.373 128.428 190.348 127.34 190.219C127.008 190.182 126.871 190.227 126.925 190.618C127.032 191.378 127.008 191.382 126.239 191.382C123.852 191.39 121.461 191.39 119.069 191.39ZM100.917 129.503C100.178 129.532 99.4347 129.528 98.704 129.606C98.0605 129.677 97.392 129.677 96.8107 130.047C96.7318 130.782 96.9187 131.355 97.5249 131.879C98.6915 132.884 99.8043 133.964 100.888 135.06C102.81 137.009 104.687 139.002 106.501 141.054C108.042 142.795 109.561 144.548 111.081 146.305C111.55 146.845 111.562 147.393 111.164 147.883C110.786 148.353 110.3 148.427 109.54 148.166C105.995 146.94 102.358 146.068 98.6542 145.474C98.4466 145.441 98.3137 145.424 98.3511 145.732C98.4632 146.654 98.5296 147.58 98.6251 148.506C99.0112 152.249 99.4057 155.992 99.7835 159.738C100.132 163.153 100.469 166.567 100.805 169.986C100.842 170.355 100.983 170.513 101.365 170.588C102.976 170.9 104.579 171.253 106.182 171.589C106.211 171.618 106.244 171.647 106.273 171.68L106.269 171.672C106.26 171.759 106.294 171.822 106.348 171.896C107.855 174.023 109.57 175.963 111.533 177.687C115.058 180.781 119.111 182.908 123.624 184.105C125.596 184.628 127.626 184.906 129.686 184.952C132.679 185.023 135.627 184.748 138.496 183.897C146.808 181.434 152.903 176.233 157.026 168.656C157.138 168.445 157.317 168.254 157.304 167.988L157.296 167.992C157.391 168.029 157.379 167.946 157.395 167.9C158.516 167.498 159.637 167.086 160.763 166.696C161.045 166.6 161.182 166.476 161.215 166.152C161.531 163.016 161.863 159.884 162.195 156.752C162.681 152.199 163.162 147.651 163.661 143.102C163.706 142.699 163.586 142.625 163.208 142.683C159.542 143.214 155.942 144.024 152.417 145.158C151.799 145.358 151.296 145.183 150.981 144.697C150.661 144.199 150.736 143.651 151.172 143.152C153.09 140.951 154.991 138.732 156.926 136.547C159.334 133.827 161.792 131.143 164.653 128.88C165.263 128.394 165.326 127.845 165.23 127.185C164.753 127.185 164.279 127.181 163.802 127.181C162.648 127.181 161.518 127.463 160.368 127.517C160.551 127.268 160.563 126.96 160.626 126.674C160.812 125.81 160.995 124.946 161.186 124.04C158.84 124.742 156.602 125.503 154.394 126.362C152.758 126.998 151.138 127.667 149.511 128.319C149.233 128.086 148.959 127.841 148.672 127.621C142.087 122.557 134.68 120.505 126.447 121.677C120.751 122.487 115.773 124.925 111.45 128.709C111.197 128.934 110.99 128.983 110.67 128.884C108.033 128.036 105.351 127.368 102.632 126.848C101.897 126.707 101.191 126.591 100.593 127.189C100.406 127.276 100.523 127.417 100.543 127.53C100.672 128.178 100.797 128.838 100.917 129.503ZM115.868 106.881C117.853 106.889 119.169 106.59 120.41 105.988C125.816 103.354 127.672 96.322 124.309 91.2128C121.307 86.6519 115.436 85.5013 111.064 88.6166C107.535 91.1297 106.045 95.8983 107.452 100.16C108.793 104.223 112.368 106.885 115.868 106.881ZM153.256 97.5681C153.31 95.379 152.92 93.6552 152.081 92.0269C149.76 87.5325 144.412 85.6383 139.899 87.7236C134.9 90.0331 132.758 96.322 135.237 101.406C137.308 105.656 141.801 107.766 146.21 106.561C150.229 105.456 153.136 101.606 153.256 97.5681ZM130.678 111.558C131.355 111.579 132.397 111.546 133.435 111.446C133.974 111.396 134.531 111.367 135.021 111.085C135.502 110.806 135.569 110.424 135.183 110.03C133.974 108.8 132.758 107.575 131.533 106.362C131.068 105.901 130.279 105.884 129.818 106.341C128.569 107.575 127.336 108.833 126.102 110.084C125.795 110.395 125.853 110.711 126.173 110.985C126.464 111.234 126.825 111.301 127.186 111.35C128.22 111.496 129.262 111.546 130.678 111.558ZM127.003 112.044C126.534 112.04 126.161 112.173 125.965 112.576C125.762 112.995 126.073 113.249 126.331 113.51C127.431 114.615 128.527 115.724 129.632 116.829C130.296 117.494 131.027 117.506 131.678 116.854C132.829 115.704 133.974 114.549 135.112 113.386C135.61 112.879 135.465 112.322 134.788 112.098C134.543 112.015 134.298 112.04 134.049 112.077C133.41 112.173 132.766 112.235 132.119 112.244C130.4 112.281 128.672 112.31 127.003 112.044Z" fill="#333333"/>
<path d="M106.19 171.585C104.584 171.249 102.985 170.896 101.374 170.584C100.992 170.509 100.847 170.352 100.814 169.982C100.481 166.567 100.141 163.149 99.7923 159.734C99.4103 155.992 99.0159 152.245 98.6339 148.503C98.5384 147.58 98.472 146.65 98.3599 145.728C98.3225 145.42 98.4512 145.437 98.663 145.47C102.366 146.064 106.004 146.937 109.549 148.162C110.309 148.424 110.795 148.349 111.173 147.879C111.567 147.389 111.555 146.841 111.09 146.301C109.57 144.544 108.046 142.791 106.51 141.051C104.696 138.999 102.819 137.005 100.897 135.057C99.813 133.96 98.7045 132.88 97.5336 131.875C96.9275 131.351 96.7448 130.778 96.8195 130.043C96.9814 130.085 97.1392 130.122 97.3011 130.168C100.137 130.973 102.973 131.775 105.808 132.585C114.013 134.92 122.217 137.254 130.421 139.588C130.417 139.788 130.404 139.987 130.408 140.187C130.438 144.153 130.454 148.12 130.496 152.087C130.541 156.586 130.467 161.084 130.575 165.583C130.662 169.168 130.595 172.757 130.599 176.346C129.96 176.242 129.321 176.15 128.69 176.03C122.196 174.813 115.715 173.517 109.242 172.196C108.262 171.997 107.295 171.697 106.282 171.668L106.286 171.677C106.311 171.581 106.236 171.598 106.19 171.585Z" fill="#FE5A43"/>
<path d="M165.239 127.172C165.334 127.833 165.272 128.381 164.662 128.867C161.801 131.135 159.343 133.814 156.935 136.535C155 138.72 153.099 140.938 151.181 143.14C150.745 143.638 150.67 144.191 150.99 144.685C151.301 145.171 151.803 145.345 152.426 145.146C155.951 144.012 159.551 143.202 163.217 142.67C163.595 142.616 163.715 142.691 163.669 143.09C163.171 147.638 162.69 152.191 162.204 156.739C161.872 159.871 161.54 163.003 161.224 166.139C161.191 166.463 161.054 166.584 160.771 166.683C159.642 167.074 158.525 167.485 157.404 167.888C157.346 167.888 157.296 167.901 157.305 167.979L157.313 167.975C157.193 167.909 157.089 167.984 156.985 168.021C154.365 168.951 151.741 169.882 149.121 170.808C146.036 171.897 142.951 172.989 139.862 174.069C137.608 174.858 135.353 175.635 133.099 176.416C133.053 171.855 133.078 167.29 133.024 162.725C132.945 156.004 132.995 149.283 132.904 142.562C132.891 141.731 132.891 140.901 132.9 140.07C132.9 139.817 132.871 139.576 132.75 139.347C132.854 139.297 132.95 139.235 133.057 139.194C141.544 136.028 150.03 132.863 158.513 129.698C160.751 128.871 162.993 128.02 165.239 127.172Z" fill="#FE5A43"/>
<path d="M100.606 127.168C101.204 126.57 101.91 126.686 102.645 126.827C105.364 127.351 108.046 128.02 110.683 128.863C111.003 128.967 111.21 128.913 111.463 128.688C115.786 124.904 120.764 122.466 126.46 121.656C134.693 120.485 142.1 122.537 148.685 127.6C148.976 127.82 149.246 128.065 149.524 128.298C148.851 128.614 148.187 128.942 147.51 129.245C144.94 130.387 142.441 131.671 139.97 133.013C137.807 134.184 135.661 135.397 133.589 136.722C132.813 137.216 131.982 137.636 131.293 138.263C131.214 138.267 131.139 138.284 131.098 138.358C131.065 138.392 131.031 138.425 130.998 138.458C130.666 138.454 130.404 138.25 130.101 138.159C130.068 138.093 130.035 138.088 129.998 138.155C129.919 138.155 129.844 138.138 129.802 138.059C129.798 137.868 129.636 137.831 129.508 137.76C127.145 136.485 124.758 135.264 122.312 134.155C119.435 132.846 116.516 131.65 113.506 130.674C110.816 129.806 108.088 129.079 105.352 128.377C103.77 127.982 102.159 127.691 100.606 127.168Z" fill="#FEFEFE"/>
<path d="M133.091 176.42C135.345 175.639 137.604 174.862 139.854 174.073C142.943 172.993 146.028 171.9 149.113 170.812C151.737 169.886 154.357 168.955 156.977 168.025C157.085 167.987 157.184 167.913 157.305 167.979C157.317 168.245 157.139 168.436 157.027 168.648C152.904 176.229 146.813 181.425 138.497 183.888C135.632 184.74 132.68 185.014 129.686 184.943C127.627 184.898 125.592 184.615 123.624 184.096C119.111 182.9 115.059 180.773 111.534 177.678C109.57 175.955 107.86 174.015 106.348 171.888C106.299 171.813 106.261 171.751 106.269 171.664C107.283 171.697 108.25 171.992 109.23 172.191C115.703 173.508 122.184 174.808 128.677 176.025C129.313 176.146 129.952 176.237 130.587 176.341C130.749 176.764 131.065 176.935 131.513 176.902C131.758 176.885 132.003 176.893 132.252 176.902C132.638 176.918 132.925 176.781 133.091 176.42Z" fill="#FEFDFD"/>
<path d="M115.869 106.881C112.369 106.881 108.798 104.218 107.453 100.16C106.045 95.8983 107.536 91.1297 111.065 88.6167C115.437 85.5013 121.308 86.6519 124.309 91.2128C127.673 96.322 125.817 103.354 120.411 105.988C119.165 106.594 117.853 106.893 115.869 106.881ZM115.155 101.302C115.146 103.695 117.002 105.651 119.282 105.651C121.524 105.651 123.388 103.703 123.404 101.34C123.421 98.9597 121.548 96.9949 119.269 96.9949C117.006 96.9991 115.163 98.9306 115.155 101.302Z" fill="#FDFDFD"/>
<path d="M153.257 97.5679C153.136 101.605 150.23 105.46 146.215 106.557C141.806 107.761 137.313 105.651 135.241 101.402C132.763 96.3176 134.905 90.0287 139.904 87.7192C144.413 85.634 149.765 87.5281 152.086 92.0226C152.92 93.6509 153.31 95.3747 153.257 97.5679ZM145.243 100.899C145.231 98.4984 143.383 96.5876 141.079 96.5959C138.837 96.6042 136.973 98.5856 136.989 100.937C137.01 103.304 138.866 105.248 141.112 105.257C143.379 105.261 145.252 103.284 145.243 100.899Z" fill="#FDFDFD"/>
<path d="M130.097 138.168C130.4 138.259 130.662 138.462 130.994 138.467C131.027 138.433 131.06 138.4 131.094 138.367C131.135 138.288 131.21 138.271 131.289 138.271C131.982 138.23 132.58 137.873 133.211 137.644C135.74 136.718 138.26 135.762 140.784 134.815C144.126 133.561 147.469 132.302 150.811 131.048C153.194 130.155 155.573 129.245 157.969 128.381C158.774 128.09 159.522 127.646 160.381 127.509C161.531 127.459 162.661 127.177 163.815 127.172C164.292 127.172 164.766 127.177 165.243 127.177C162.997 128.02 160.755 128.871 158.509 129.71C150.022 132.876 141.536 136.041 133.053 139.206C132.945 139.248 132.846 139.306 132.746 139.36C131.945 138.986 130.878 139.094 130.421 139.592C122.217 137.258 114.013 134.923 105.808 132.589C102.973 131.783 100.137 130.977 97.3012 130.171C97.1434 130.126 96.9815 130.088 96.8196 130.047C97.3967 129.677 98.0693 129.673 98.7087 129.607C99.4436 129.528 100.183 129.532 100.922 129.503C101.1 129.615 101.304 129.602 101.503 129.594C102.034 129.577 102.549 129.681 103.072 129.768C104.638 130.03 106.153 130.495 107.673 130.948C111.584 132.111 115.474 133.345 119.352 134.628C122.005 135.509 124.671 136.348 127.307 137.274C128.133 137.565 128.947 137.889 129.806 138.068C129.848 138.147 129.923 138.163 130.002 138.163C130.027 138.168 130.064 138.168 130.097 138.168Z" fill="#ECE7E4"/>
<path d="M160.381 127.505C159.522 127.646 158.774 128.091 157.969 128.377C155.573 129.241 153.198 130.151 150.811 131.044C147.469 132.298 144.127 133.557 140.784 134.811C138.26 135.758 135.744 136.714 133.211 137.64C132.58 137.873 131.982 138.226 131.289 138.267C131.978 137.64 132.808 137.221 133.585 136.726C135.661 135.401 137.803 134.188 139.966 133.017C142.437 131.675 144.936 130.396 147.506 129.249C148.183 128.946 148.851 128.618 149.52 128.302C151.147 127.65 152.767 126.977 154.403 126.346C156.611 125.49 158.849 124.726 161.195 124.024C161.004 124.929 160.821 125.793 160.635 126.657C160.572 126.948 160.56 127.256 160.381 127.505Z" fill="#E5F3FD"/>
<path d="M129.798 138.072C128.939 137.889 128.121 137.57 127.299 137.279C124.662 136.348 121.997 135.513 119.344 134.633C115.47 133.345 111.58 132.111 107.665 130.953C106.149 130.504 104.634 130.039 103.064 129.773C102.545 129.686 102.026 129.582 101.495 129.598C101.296 129.607 101.096 129.619 100.914 129.507C100.793 128.842 100.669 128.182 100.552 127.517C100.532 127.405 100.415 127.264 100.602 127.177C102.155 127.696 103.766 127.991 105.348 128.394C108.084 129.096 110.812 129.823 113.502 130.691C116.512 131.663 119.431 132.863 122.308 134.172C124.754 135.281 127.141 136.506 129.504 137.777C129.632 137.844 129.794 137.877 129.798 138.072Z" fill="#E5F4FE"/>
<path d="M130.679 111.558C129.263 111.546 128.221 111.496 127.187 111.351C126.826 111.301 126.464 111.234 126.174 110.985C125.854 110.711 125.8 110.395 126.103 110.084C127.336 108.829 128.565 107.575 129.819 106.341C130.28 105.888 131.069 105.905 131.534 106.362C132.759 107.575 133.975 108.8 135.183 110.03C135.57 110.424 135.499 110.807 135.021 111.085C134.532 111.367 133.975 111.396 133.435 111.446C132.397 111.542 131.355 111.575 130.679 111.558Z" fill="#FCFCFC"/>
<path d="M127.004 112.044C128.677 112.31 130.4 112.281 132.127 112.248C132.775 112.235 133.419 112.177 134.058 112.081C134.303 112.044 134.548 112.019 134.797 112.102C135.474 112.331 135.619 112.883 135.121 113.39C133.979 114.549 132.837 115.708 131.687 116.858C131.035 117.51 130.305 117.498 129.64 116.833C128.536 115.728 127.44 114.619 126.34 113.514C126.078 113.253 125.771 112.999 125.974 112.58C126.161 112.173 126.531 112.04 127.004 112.044Z" fill="#FCFCFC"/>
<path d="M157.3 167.989C157.292 167.909 157.342 167.901 157.401 167.896C157.384 167.943 157.397 168.026 157.3 167.989Z" fill="#FEFDFD"/>
<path d="M106.191 171.585C106.237 171.598 106.312 171.581 106.283 171.677C106.249 171.644 106.22 171.614 106.191 171.585Z" fill="#FEFDFD"/>
<path d="M130.417 139.592C130.874 139.089 131.941 138.981 132.742 139.359C132.862 139.584 132.892 139.825 132.892 140.082C132.883 140.913 132.883 141.744 132.896 142.575C132.983 149.295 132.933 156.016 133.016 162.737C133.07 167.302 133.045 171.863 133.091 176.428C132.929 176.79 132.638 176.922 132.256 176.91C132.011 176.902 131.762 176.893 131.517 176.91C131.069 176.943 130.757 176.773 130.591 176.349C130.587 172.76 130.654 169.171 130.566 165.587C130.459 161.088 130.533 156.59 130.488 152.091C130.446 148.124 130.425 144.157 130.4 140.19C130.4 139.991 130.413 139.791 130.417 139.592Z" fill="#FDBD06"/>
<path d="M130.098 138.168C130.065 138.168 130.027 138.168 129.993 138.164C130.031 138.101 130.065 138.101 130.098 138.168Z" fill="#E5F4FE"/>
<path d="M131.095 138.367C131.061 138.4 131.028 138.434 130.994 138.467C131.028 138.434 131.061 138.4 131.095 138.367Z" fill="#E5F3FD"/>
<path d="M115.155 101.303C115.163 98.9266 117.006 96.9951 119.269 96.9951C121.549 96.9951 123.421 98.9599 123.404 101.34C123.388 103.708 121.528 105.652 119.282 105.652C117.002 105.652 115.146 103.695 115.155 101.303Z" fill="#343434"/>
<path d="M145.243 100.899C145.256 103.284 143.379 105.257 141.112 105.253C138.862 105.248 137.006 103.304 136.989 100.933C136.969 98.5815 138.837 96.6043 141.079 96.5918C143.379 96.5876 145.231 98.4984 145.243 100.899Z" fill="#343434"/>
<path d="M116.458 105.257C116.981 105.257 117.405 104.833 117.405 104.31C117.405 103.787 116.981 103.363 116.458 103.363C115.935 103.363 115.511 103.787 115.511 104.31C115.511 104.833 115.935 105.257 116.458 105.257Z" fill="#FDFDFD"/>
<path d="M142.786 105.257C143.308 105.257 143.732 104.833 143.732 104.31C143.732 103.787 143.308 103.363 142.786 103.363C142.263 103.363 141.839 103.787 141.839 104.31C141.839 104.833 142.263 105.257 142.786 105.257Z" fill="#FDFDFD"/>
</g>
<rect x="97.6489" y="191.403" width="63.7033" height="7.57553" fill="#8F35B1"/>
<rect x="93.8611" y="198.979" width="71.2788" height="8.26421" fill="#A73798"/>
<rect x="88.696" y="207.242" width="81.6091" height="9.64158" fill="#A93373"/>
<defs>
<clipPath id="clip0">
<rect width="91.2507" height="124.652" fill="white" transform="translate(85.2524 66.751)"/>
</clipPath>
</defs>
</svg>
