<?xml version="1.0" encoding="UTF-8"?>
<svg width="33px" height="32px" version="1.1" viewBox="0 0 37 32" xmlns="http://www.w3.org/2000/svg">
<g>
<path d="m27.922 16.582v-14.883c0-0.92578-0.84766-1.6797-1.9023-1.6992-1.0898-0.019531-1.9805 0.78516-1.9805 1.7383v14.59c0 0.9375 0.87109 1.6992 1.9414 1.6992h2.9844c0.15625 0 0.21484-0.17969 0.082031-0.25-0.48438-0.25781-1.125-0.69922-1.125-1.1953z" fill="#cc3960"/>
<path d="m22.844 3.9414v11.348h-7.7461c-0.97656 0-1.7656-0.69141-1.7656-1.543v-0.82031h-4.7148v-7.668h4.7148v-0.42187c0-0.32813 0.10156-0.63281 0.28125-0.89453 0.34766-0.51172 0.98438-0.85547 1.7148-0.85547h7.5156z" fill="#f9c195"/>
<path d="m13.332 12.113v-0.82031h-4.7148v1.6328h4.7148v0.82031c0 0.85156 0.78906 1.543 1.7656 1.543h7.7461v-1.6328h-7.7461c-0.97656 0-1.7656-0.69141-1.7656-1.543z" fill="#e59e69"/>
<path d="m11.02 4.8086v8.5664c0 0.34766-0.31641 0.625-0.71094 0.625h-2.2656v-9.8164h2.2656c0.39453 0 0.71094 0.28125 0.71094 0.625z" fill="#ebedf2"/>
<path d="m10.309 12.508h-2.2656v1.4922h2.2656c0.39453 0 0.71094-0.27734 0.71094-0.625v-1.4922c0 0.34375-0.31641 0.625-0.71094 0.625z" fill="#d0d6de"/>
<path d="m5.7812 14.844h1.4961c0.42188 0 0.76172-0.30078 0.76172-0.66797v-10.168c0-0.36719-0.33984-0.66797-0.76172-0.66797h-3.332c-0.40234 0-0.71484 0.31641-0.65234 0.66797l1.8359 10.348c0.046875 0.28125 0.32422 0.48828 0.65234 0.48828z" fill="#646c87"/>
<path d="m4.9453 13.332 0.18359 1.0234c0.046875 0.28125 0.32422 0.48828 0.65234 0.48828h1.4961c0.42188 0 0.76562-0.30078 0.76562-0.66797v-0.84375z" fill="#444966"/>
<path d="m8.6211 17.977c-0.30859 0.84375-0.67188 1.1641-1.6406 1.4375-0.16016 0.042969-0.16016 0.24609 0 0.28906 0.96875 0.27344 1.332 0.58984 1.6406 1.4375 0.054687 0.14062 0.28516 0.14062 0.33594 0 0.30859-0.84766 0.67578-1.1641 1.6406-1.4375 0.16016-0.042969 0.16016-0.24609 0-0.28906-0.96484-0.27344-1.332-0.59375-1.6406-1.4375-0.050781-0.14062-0.28125-0.14062-0.33594 0z" fill="#f2de33"/>
<path d="m31.191 25.996c-0.3125 0.84766-0.67578 1.1641-1.6406 1.4375-0.16406 0.042968-0.16406 0.24609 0 0.28906 0.96484 0.27344 1.3281 0.59375 1.6406 1.4375 0.050782 0.14062 0.28125 0.14062 0.33203 0 0.30859-0.84375 0.67578-1.1641 1.6406-1.4375 0.16016-0.042968 0.16016-0.24609 0-0.28906-0.96484-0.27344-1.332-0.58984-1.6406-1.4375-0.050782-0.14062-0.28125-0.14062-0.33203 0z" fill="#5b9ced"/>
<path d="m31.191 9.8633c-0.3125 0.84375-0.67578 1.1641-1.6406 1.4336-0.16406 0.046875-0.16406 0.25 0 0.29297 0.96484 0.26953 1.3281 0.58984 1.6406 1.4375 0.050782 0.14062 0.28125 0.14062 0.33203 0 0.30859-0.84766 0.67578-1.168 1.6406-1.4375 0.16016-0.042969 0.16016-0.24609 0-0.29297-0.96484-0.26953-1.332-0.58984-1.6406-1.4336-0.050782-0.14062-0.28125-0.14062-0.33203 0z" fill="#ebedf2"/>
<path d="m25.98 0c-1.0703 0-1.9414 0.76172-1.9414 1.6992v20.555h-7.2266v-20.555c0-0.9375 0.86719-1.6992 1.9414-1.6992z" fill="#5b9ced"/>
<path d="m25.98 0c-0.82031 0-1.5234 0.44531-1.8047 1.0781-0.089843 0.19141-0.13672 0.40234-0.13672 0.62109v20.555h-3.6133v-20.555c0-0.9375 0.86719-1.6992 1.9414-1.6992z" fill="#ec5475"/>
<path d="m20.348 31.531c4.1719 0 7.5508-2.957 7.5508-6.6055 0-3.6484-3.3789-6.6055-7.5508-6.6055-4.168 0-7.5469 2.957-7.5469 6.6055 0 3.6484 3.3789 6.6055 7.5469 6.6055z" fill="#fbab28"/>
<path d="m24.074 19.18c1.418 1.2031 2.3008 2.8828 2.3008 4.7461 0 3.6484-3.3828 6.6055-7.5508 6.6055-1.3555 0-2.625-0.3125-3.7266-0.85938 1.3594 1.1523 3.2109 1.8594 5.25 1.8594 4.168 0 7.5508-2.957 7.5508-6.6055 0-2.4609-1.543-4.6094-3.8242-5.7461z" fill="#dd8d19"/>
<path d="m20.348 32c-4.457 0-8.082-3.1719-8.082-7.0742 0-3.8984 3.625-7.0742 8.082-7.0742 4.457 0 8.0859 3.1758 8.0859 7.0742 0 3.9023-3.6289 7.0742-8.0859 7.0742zm0-13.211c-3.8672 0-7.0117 2.7539-7.0117 6.1367 0 3.3828 3.1445 6.1367 7.0117 6.1367 3.8672 0 7.0156-2.7539 7.0156-6.1367 0-3.3828-3.1484-6.1367-7.0156-6.1367z" fill="#f2de33"/>
<path d="m20.121 27.969-1.668 0.45703c-0.48828 0.13281-0.98828-0.18359-0.99219-0.63281l-0.019532-1.5273c-0.003906-0.13672-0.050781-0.26953-0.14062-0.38281l-1.0117-1.2422c-0.29687-0.36719-0.10547-0.88281 0.37891-1.0234l1.6562-0.48828c0.14453-0.042968 0.27734-0.125 0.36719-0.23438l1.043-1.2266c0.30469-0.35938 0.92188-0.35938 1.2305 0l1.0391 1.2266c0.09375 0.10938 0.22266 0.19141 0.37109 0.23438l1.6523 0.48828c0.48828 0.14062 0.67969 0.65625 0.38281 1.0234l-1.0117 1.2422c-0.089844 0.11328-0.14063 0.24609-0.14063 0.38281l-0.019531 1.5273c-0.003906 0.44922-0.50391 0.76562-0.99609 0.63281l-1.6641-0.45703c-0.14844-0.042969-0.30859-0.042969-0.45703 0z" fill="#f2de33"/>
<path d="m26.371 13.871c0 0.78516-0.72656 1.418-1.6211 1.418h-3.4297c-0.89453 0-1.6211-0.63281-1.6211-1.418 0-0.78125 0.72656-1.418 1.6211-1.418h3.4297c0.89453 0 1.6211 0.63672 1.6211 1.418z" fill="#f4b07d"/>
<path d="m26.371 11.035c0 0.78125-0.72656 1.418-1.6211 1.418h-3.4297c-0.89453 0-1.6211-0.63672-1.6211-1.418 0-0.78516 0.72656-1.418 1.6211-1.418h3.4297c0.89453 0 1.6211 0.63281 1.6211 1.418z" fill="#fbcfad"/>
<path d="m26.371 8.1992c0 0.78125-0.72656 1.418-1.6211 1.418h-3.4297c-0.89453 0-1.6211-0.63672-1.6211-1.418 0-0.78516 0.72656-1.4219 1.6211-1.4219h3.4297c0.89453 0 1.6211 0.63672 1.6211 1.4219z" fill="#ee9d67"/>
<path d="m26.371 5.3594c0 0.78516-0.72656 1.418-1.6211 1.418h-3.4297c-0.89453 0-1.6211-0.63281-1.6211-1.418 0-0.78125 0.72656-1.418 1.6211-1.418h3.4297c0.89453 0 1.6211 0.63672 1.6211 1.418z" fill="#fbcfad"/>
<path d="m22.027 3.0898h0.85156c0.72656 0 1.3125 0.51172 1.3125 1.1484v4.8477c0 0.29297-0.26953 0.53125-0.60547 0.53125h-0.78516c-1.0586 0-1.918-0.75391-1.918-1.6836v-1.8789h-1.5625c-0.33203 0-0.60156 0.23828-0.60156 0.52734v0.28125c0 1.3672-1.2695 2.4766-2.832 2.4766h-0.46484c-0.82031 0-2.0898-0.8125-2.0898-2.4766v-2.0273c0-0.32813 0.10156-0.63281 0.28125-0.89453 0.34766-0.51172 0.98438-0.85547 1.7148-0.85547h6.6992z" fill="#f9c195"/>
</g>
</svg>
