<svg width="33" height="32" viewBox="0 0 33 32" fill="none" xmlns="http://www.w3.org/2000/svg">
<path d="M32.2168 0C29.8008 0 27.3847 0 24.9687 0C24.9687 0.0666495 24.9437 0.116637 24.8854 0.158292C24.3355 0.63317 24.3105 1.18303 24.8271 1.70789C25.2186 2.09946 25.6019 2.49102 25.9934 2.87426C26.0767 2.94924 26.135 3.05754 26.2683 3.05754C26.5266 3.35747 26.335 3.53242 26.1184 3.74903C25.3019 4.54882 24.5105 5.36528 23.7107 6.18174C23.2525 6.60663 22.8109 7.03985 22.3444 7.45641C21.8945 7.86463 21.4196 8.24787 20.9697 8.66443C20.6031 8.99768 19.7034 9.68083 19.6451 9.72249C19.0452 10.164 18.4454 10.6056 17.8372 11.0305C16.1293 12.2218 14.3214 13.2466 12.4636 14.188C12.4136 14.2047 12.3636 14.213 12.3136 14.238C10.8057 14.9711 9.23941 15.546 7.6315 16.0125C5.82363 16.5374 3.97411 16.8373 2.09126 16.8623C1.53307 16.8706 1.12484 17.0373 0.899902 17.5621C0.899902 17.7288 0.899902 17.8954 0.899902 18.062C1.15817 18.6452 1.62472 18.8035 2.21623 18.7535C2.69111 18.7202 3.16598 18.7202 3.64919 18.7035C4.86554 18.6535 6.06523 18.5285 7.26493 18.3869C8.63957 18.2203 10.0059 17.962 11.3555 17.6454C13.1967 17.2206 14.9796 16.6124 16.7291 15.9126C17.8455 15.4627 20.1116 14.2796 20.1866 14.238C22.286 13.08 24.1772 11.647 25.9101 10.0057C26.0018 9.92244 26.3267 9.59752 26.4183 9.49755C27.3681 8.54779 28.3262 7.60637 29.2592 6.64828C29.4425 6.45667 29.5508 6.42334 29.7508 6.63995C30.209 7.13149 30.7005 7.59804 31.1837 8.08125C31.3087 8.20621 31.4503 8.31452 31.617 8.38117C32.1252 8.58112 32.5584 8.36451 32.8916 7.75633C32.8916 7.25646 32.8916 6.75659 32.8916 6.25672C32.8916 5.14867 32.8916 4.04895 32.8916 2.94091C32.8916 2.1911 32.8916 1.44129 32.8916 0.691488C32.7333 0.391566 32.5084 0.166624 32.2168 0Z" fill="#FED3DA"/>
<path d="M30.5088 32H25.885C25.6101 32 25.3851 31.7751 25.3851 31.5002V13.6215C25.3851 13.3465 25.6101 13.1216 25.885 13.1216H30.5088C30.7837 13.1216 31.0087 13.3465 31.0087 13.6215V31.5002C31.0087 31.7751 30.7837 32 30.5088 32Z" fill="url(#paint0_linear)"/>
<path d="M22.9774 32H18.3536C18.0787 32 17.8538 31.7751 17.8538 31.5002V19.245C17.8538 18.9701 18.0787 18.7451 18.3536 18.7451H22.9774C23.2524 18.7451 23.4773 18.9701 23.4773 19.245V31.5002C23.4773 31.7751 23.2524 32 22.9774 32Z" fill="url(#paint1_linear)"/>
<path d="M15.4461 32H10.8223C10.5473 32 10.3224 31.7751 10.3224 31.5001V22.994C10.3224 22.7191 10.5473 22.4941 10.8223 22.4941H15.4461C15.721 22.4941 15.9459 22.7191 15.9459 22.994V31.5001C15.9459 31.7751 15.7293 32 15.4461 32Z" fill="url(#paint2_linear)"/>
<path d="M7.92299 32H3.29919C3.02426 32 2.79932 31.7751 2.79932 31.5001V24.8685C2.79932 24.5936 3.02426 24.3687 3.29919 24.3687H7.92299C8.19792 24.3687 8.42286 24.5936 8.42286 24.8685V31.5001C8.42286 31.7751 8.19792 32 7.92299 32Z" fill="url(#paint3_linear)"/>
<defs>
<linearGradient id="paint0_linear" x1="28.1971" y1="31.9985" x2="28.1971" y2="13.1195" gradientUnits="userSpaceOnUse">
<stop stop-color="#FC3E84"/>
<stop offset="1" stop-color="#FE978B"/>
</linearGradient>
<linearGradient id="paint1_linear" x1="20.6695" y1="31.9985" x2="20.6695" y2="18.7433" gradientUnits="userSpaceOnUse">
<stop stop-color="#E7B835"/>
<stop offset="1" stop-color="#FFCD38"/>
</linearGradient>
<linearGradient id="paint2_linear" x1="13.1393" y1="31.9985" x2="13.1393" y2="22.4913" gradientUnits="userSpaceOnUse">
<stop stop-color="#00AD94"/>
<stop offset="1" stop-color="#3AC7B4"/>
</linearGradient>
<linearGradient id="paint3_linear" x1="5.61087" y1="31.9985" x2="5.61087" y2="24.3658" gradientUnits="userSpaceOnUse">
<stop stop-color="#00A5C6"/>
<stop offset="1" stop-color="#49C3E0"/>
</linearGradient>
</defs>
</svg>
