<svg width="1920" height="468" viewBox="0 0 1920 468" fill="none" xmlns="http://www.w3.org/2000/svg">
<g opacity="0.5">
<path d="M1866.92 342.842C1834.65 330.267 1811.38 308.307 1777.74 297.922C1743.15 287.286 1711.19 287.474 1679.8 261.573C1655.16 241.241 1661.73 221.408 1647.59 201.764C1635.96 185.497 1619.45 189.439 1603.25 176.488C1594.25 169.294 1595.5 155.968 1587.87 148.961C1561.6 124.937 1567.98 126.313 1544.4 142.017C1508.07 166.291 1496.5 238.926 1442.65 217.842C1407.32 204.016 1368.48 154.279 1340.34 129.879C1308.13 101.977 1240.15 47.2346 1240.15 47.2346C1240.15 47.2346 1134.34 135.01 1069.92 151.464C1033.02 160.91 977.363 109.734 950.284 87.2745C919.39 61.7491 868.295 42.2296 857.601 0C809.884 37.0995 769.797 82.8326 714.075 112.049C693.374 122.873 666.858 125.75 645.032 136.136C618.077 148.961 605.382 162.662 580.554 181.931C559.541 198.26 534.213 205.893 514.888 220.908C486.683 242.805 482.806 270.707 445.032 255.004C393.876 233.733 368.36 182.119 308.573 215.027C258.291 242.679 194.377 353.54 127.835 352.539L1948.34 370.807C1925.26 361.485 1892.99 352.977 1866.92 342.842Z" fill="url(#paint0_linear)"/>
<path d="M1135.15 340.651C1113.45 332.205 1097.75 317.378 1075.11 310.433C1051.85 303.301 1030.33 303.426 1009.2 285.972C992.623 272.333 997 258.945 987.557 245.744C979.677 234.796 968.608 237.423 957.726 228.727C951.66 223.91 952.535 214.901 947.344 210.209C929.646 194.005 933.961 194.943 918.076 205.516C893.624 221.845 885.869 270.706 849.596 256.567C825.831 247.245 799.69 213.775 780.741 197.321C759.04 178.552 713.262 141.703 713.262 141.703C713.262 141.703 642.03 200.762 598.69 211.835C573.862 218.216 536.402 183.745 518.203 168.667C497.377 151.4 462.981 138.262 455.727 109.796C423.644 134.758 396.627 165.539 359.104 185.246C345.158 192.566 327.334 194.505 312.638 201.45C294.501 210.083 285.934 219.343 269.236 232.293C255.102 243.304 238.029 248.434 225.021 258.507C206.009 273.271 203.445 292.04 177.992 281.467C143.533 267.14 126.335 232.418 86.1846 254.565C52.3511 273.271 9.32432 347.846 -35.4535 347.158L1189.93 359.482C1174.42 353.226 1152.72 347.47 1135.15 340.651Z" fill="url(#paint1_linear)"/>
<path d="M1900.62 449.197C1878.92 440.752 1863.23 425.924 1840.59 418.98C1817.32 411.848 1795.81 411.973 1774.67 394.518C1758.1 380.879 1762.48 367.491 1753.03 354.29C1745.22 343.342 1734.08 345.97 1723.2 337.273C1717.14 332.456 1718.01 323.447 1712.82 318.755C1695.12 302.551 1699.44 303.49 1683.55 314.063C1659.1 330.392 1651.34 379.253 1615.07 365.114C1591.31 355.792 1565.17 322.321 1546.22 305.867C1524.52 287.098 1478.74 250.249 1478.74 250.249C1478.74 250.249 1407.51 309.308 1364.17 320.382C1339.34 326.7 1301.88 292.291 1283.68 277.213C1262.85 259.946 1228.46 246.808 1221.2 218.342C1189.12 243.305 1162.1 274.085 1124.58 293.793C1110.63 301.112 1092.81 303.052 1078.11 309.996C1059.98 318.63 1051.41 327.889 1034.71 340.839C1020.58 351.85 1003.5 356.981 990.496 367.053C971.485 381.818 968.92 400.587 943.467 390.013C909.008 375.687 891.81 340.965 851.66 363.112C817.827 381.755 774.8 456.33 729.959 455.641L1955.35 467.966C1939.9 461.773 1918.2 456.017 1900.62 449.197Z" fill="url(#paint2_linear)"/>
</g>
<defs>
<linearGradient id="paint0_linear" x1="1038.05" y1="328.413" x2="1038.05" y2="-113.932" gradientUnits="userSpaceOnUse">
<stop stop-color="white"/>
<stop offset="0.2159" stop-color="#FAFAFA"/>
<stop offset="0.4897" stop-color="#EAEAEA"/>
<stop offset="0.7935" stop-color="#D0D0D0"/>
<stop offset="1" stop-color="#BABABA"/>
</linearGradient>
<linearGradient id="paint1_linear" x1="577.228" y1="330.946" x2="577.228" y2="33.2108" gradientUnits="userSpaceOnUse">
<stop stop-color="white"/>
<stop offset="0.2159" stop-color="#FAFAFA"/>
<stop offset="0.4897" stop-color="#EAEAEA"/>
<stop offset="0.7935" stop-color="#D0D0D0"/>
<stop offset="1" stop-color="#BABABA"/>
</linearGradient>
<linearGradient id="paint2_linear" x1="1342.72" y1="439.482" x2="1342.72" y2="141.747" gradientUnits="userSpaceOnUse">
<stop stop-color="white"/>
<stop offset="0.2159" stop-color="#FAFAFA"/>
<stop offset="0.4897" stop-color="#EAEAEA"/>
<stop offset="0.7935" stop-color="#D0D0D0"/>
<stop offset="1" stop-color="#BABABA"/>
</linearGradient>
</defs>
</svg>
