<svg xmlns="http://www.w3.org/2000/svg" width="15" height="19" fill="none" ><g clip-path="url(#A)" fill="#26c6da"><path d="M7.537 0c.107.062.236.05.353.084.578.179.998.533 1.234 1.094.045.107.101.14.213.135h1.026a1.64 1.64 0 0 1 .286.022c.23.045.336.179.342.409v.538c-.006.107.034.129.129.129h1.48c1.088.006 1.901.813 1.901 1.895l.011 12.366c.006 1.105-.925 1.778-1.778 1.778H1.778c-.847 0-1.581-.589-1.75-1.385-.028-.129-.022-.264-.022-.393V4.307c0-1.082.813-1.895 1.896-1.901h1.441c.129 0 .185-.017.168-.163-.017-.168-.006-.336-.006-.505 0-.258.112-.387.37-.421.398-.045.802-.017 1.206-.017.14 0 .202-.045.264-.174A1.98 1.98 0 0 1 6.724.022c.034-.006.073.006.09-.039L7.537 0zM.881 10.515v6.163a.8.8 0 0 0 .628.847c.151.045.308.045.465.045h10.543l.269-.011a.84.84 0 0 0 .83-.897V13.74 4.33c0-.617-.404-1.026-1.021-1.032-.488-.006-.976.006-1.458-.006-.123 0-.151.034-.146.151v.847c0 .331-.191.533-.516.533H4.004c-.32 0-.499-.191-.499-.51v-.88c.006-.112-.028-.14-.14-.14l-1.436.017C1.278 3.31.88 3.714.88 4.37v6.146zm6.371-6.561l2.686.006c.135 0 .168-.034.168-.168V2.35c0-.112-.022-.157-.146-.151l-.97.006c-.365 0-.488-.095-.583-.449-.151-.55-.639-.931-1.183-.925-.55.006-1.026.387-1.183.953-.09.314-.224.421-.555.421-.308 0-.611.006-.92-.006-.123-.006-.163.022-.157.157a30.86 30.86 0 0 1 0 1.441c-.006.14.039.168.174.163l2.669-.006zm2.097 3.292H11.8c.308 0 .499.174.505.437 0 .269-.191.454-.493.454H6.859c-.297 0-.499-.196-.488-.46.006-.258.202-.432.499-.432h2.479zm-.011 7.032h2.501c.213 0 .387.118.449.297s0 .381-.157.499a.5.5 0 0 1-.32.095H6.876c-.303 0-.505-.185-.505-.443 0-.269.202-.449.516-.449h2.451zm.005-2.63H6.82c-.213 0-.381-.129-.432-.314-.05-.196.022-.398.191-.505.112-.067.241-.067.365-.067h4.615l.325.006c.269.022.432.207.421.465-.011.241-.191.409-.454.409l-2.507.006zm-7.144 2.737c.006-.219.073-.359.236-.432.179-.084.353-.056.499.079l.488.505c.084.095.135.107.236.011l1.251-1.194c.196-.185.409-.202.6-.062.247.179.264.471.028.695l-1.368 1.301-.342.32c-.196.163-.415.157-.594-.022l-.88-.897c-.095-.101-.157-.213-.151-.303zm.005-7.083c.006-.174.073-.314.241-.387.174-.079.342-.056.482.079l.477.494c.095.112.157.135.275.011l1.223-1.172c.179-.168.353-.202.538-.112.286.14.359.482.129.707L3.83 8.569c-.196.179-.421.163-.606-.022l-.869-.886c-.101-.107-.163-.219-.151-.359zm-.005 3.555c.006-.224.084-.359.247-.432.179-.079.342-.045.482.084l.516.527c.079.09.123.073.196 0L4.902 9.83c.219-.207.494-.196.684.017.146.168.163.398 0 .555L3.814 12.09a.41.41 0 0 1-.583-.028l-.908-.931c-.084-.084-.129-.191-.123-.275z"/></g><defs><clipPath id="A"><path fill="#fff" d="M0 0h14.508v18.462H0z"/></clipPath></defs></svg>