<svg width="18" height="16" viewBox="0 0 18 16" fill="none" xmlns="http://www.w3.org/2000/svg">
<path fill-rule="evenodd" clip-rule="evenodd" d="M0 0.632822C0 0.283324 0.283324 0 0.632822 0H5.54427C6.58051 0 7.5743 0.411642 8.30703 1.14437C9.03975 1.8771 9.4514 2.87089 9.4514 3.90712V15.3672C9.4514 15.7167 9.16807 16 8.81857 16C8.46908 16 8.18575 15.7167 8.18575 15.3672C8.18575 14.8837 7.9937 14.42 7.65184 14.0782C7.30998 13.7363 6.84631 13.5443 6.36285 13.5443H0.632822C0.283324 13.5443 0 13.261 0 12.9115V0.632822ZM8.18575 12.8739V3.90712C8.18575 3.20656 7.90745 2.53469 7.41208 2.03931C6.91671 1.54394 6.24484 1.26564 5.54427 1.26564H1.26564V12.2786H6.36285C7.02228 12.2786 7.65997 12.4895 8.18575 12.8739Z" fill="#BE63F9"/>
<path fill-rule="evenodd" clip-rule="evenodd" d="M9.3304 1.14437C10.0631 0.411642 11.0569 0 12.0932 0H17.0046C17.3541 0 17.6374 0.283324 17.6374 0.632822V12.9115C17.6374 13.261 17.3541 13.5443 17.0046 13.5443H11.2746C10.7911 13.5443 10.3275 13.7363 9.98559 14.0782C9.64373 14.42 9.45168 14.8837 9.45168 15.3672C9.45168 15.7167 9.16835 16 8.81886 16C8.46936 16 8.18604 15.7167 8.18604 15.3672V3.90712C8.18604 2.87089 8.59768 1.8771 9.3304 1.14437ZM9.45168 12.8739C9.97746 12.4895 10.6152 12.2786 11.2746 12.2786H16.3718V1.26564H12.0932C11.3926 1.26564 10.7207 1.54394 10.2254 2.03931C9.72998 2.53469 9.45168 3.20656 9.45168 3.90712V12.8739Z" fill="#BE63F9"/>
</svg>
