<svg width="19" height="16" viewBox="0 0 19 16" fill="none" xmlns="http://www.w3.org/2000/svg">
<path fill-rule="evenodd" clip-rule="evenodd" d="M9.32169 0L18.6434 5.17872L15.6098 6.86402C16.2539 8.71437 16.4187 10.7006 16.0852 12.6364L16.0166 13.035L15.6139 13.0741C13.4071 13.2883 11.3264 14.2022 9.67567 15.6826L9.32168 16L8.9677 15.6825C8.13878 14.9392 7.20144 14.3386 6.19413 13.8978V15.2375H5.13374V13.5009C4.45293 13.2876 3.7483 13.1438 3.03029 13.0741L2.62778 13.035L2.55907 12.6364C2.22537 10.7008 2.39014 8.71463 3.03427 6.86442L0 5.17872L9.32169 0ZM3.97656 7.38791C3.48176 8.89383 3.33357 10.4932 3.54431 12.0661C4.08323 12.1382 4.61428 12.2483 5.13374 12.3947V8.06726L5.16656 8.04903L3.97656 7.38791ZM6.19413 8.69123V12.7503C7.32242 13.1911 8.37904 13.81 9.32169 14.5884C10.9737 13.2242 12.9757 12.3501 15.0999 12.0661C15.3105 10.4931 15.1623 8.89368 14.6676 7.38767L9.57917 10.2144L9.32169 10.3574L9.0642 10.2144L6.25834 8.65557L6.19413 8.69123ZM9.3217 9.14437L16.4599 5.17872L9.32169 1.21305L2.18349 5.17872L3.41807 5.86459L6.25852 7.44244L9.06422 5.88388L9.57916 6.81085L7.35025 8.04901L9.3217 9.14437Z" fill="#FC573B"/>
</svg>
