<svg width="563" height="1043" viewBox="0 0 563 1043" fill="none" xmlns="http://www.w3.org/2000/svg">
<circle cx="320.698" cy="757.522" r="1.47761" transform="rotate(-180 320.698 757.522)" fill="#1F95F2"/>
<circle cx="300.143" cy="757.522" r="1.47761" transform="rotate(-180 300.143 757.522)" fill="#1F95F2"/>
<circle cx="279.588" cy="757.522" r="1.47761" transform="rotate(-180 279.588 757.522)" fill="#1F95F2"/>
<circle cx="259.032" cy="757.522" r="1.47761" transform="rotate(-180 259.032 757.522)" fill="#1F95F2"/>
<circle cx="238.478" cy="757.522" r="1.47761" transform="rotate(-180 238.478 757.522)" fill="#1F95F2"/>
<circle cx="320.698" cy="735.851" r="1.47761" transform="rotate(-180 320.698 735.851)" fill="#1F95F2"/>
<circle cx="300.143" cy="735.851" r="1.47761" transform="rotate(-180 300.143 735.851)" fill="#1F95F2"/>
<circle cx="279.588" cy="735.851" r="1.47761" transform="rotate(-180 279.588 735.851)" fill="#1F95F2"/>
<circle cx="259.032" cy="735.851" r="1.47761" transform="rotate(-180 259.032 735.851)" fill="#1F95F2"/>
<circle cx="238.478" cy="735.851" r="1.47761" transform="rotate(-180 238.478 735.851)" fill="#1F95F2"/>
<circle cx="320.698" cy="714.18" r="1.47761" transform="rotate(-180 320.698 714.18)" fill="#1F95F2"/>
<circle cx="300.143" cy="714.179" r="1.47761" transform="rotate(-180 300.143 714.179)" fill="#1F95F2"/>
<circle cx="279.588" cy="714.179" r="1.47761" transform="rotate(-180 279.588 714.179)" fill="#1F95F2"/>
<circle cx="259.032" cy="714.179" r="1.47761" transform="rotate(-180 259.032 714.179)" fill="#1F95F2"/>
<circle cx="238.478" cy="714.179" r="1.47761" transform="rotate(-180 238.478 714.179)" fill="#1F95F2"/>
<circle cx="320.698" cy="692.508" r="1.47761" transform="rotate(-180 320.698 692.508)" fill="#1F95F2"/>
<circle cx="300.143" cy="692.508" r="1.47761" transform="rotate(-180 300.143 692.508)" fill="#1F95F2"/>
<circle cx="279.588" cy="692.508" r="1.47761" transform="rotate(-180 279.588 692.508)" fill="#1F95F2"/>
<circle cx="259.032" cy="692.508" r="1.47761" transform="rotate(-180 259.032 692.508)" fill="#1F95F2"/>
<circle cx="238.478" cy="692.507" r="1.47761" transform="rotate(-180 238.478 692.507)" fill="#1F95F2"/>
<circle cx="320.698" cy="670.836" r="1.47761" transform="rotate(-180 320.698 670.836)" fill="#1F95F2"/>
<circle cx="300.143" cy="670.836" r="1.47761" transform="rotate(-180 300.143 670.836)" fill="#1F95F2"/>
<circle cx="279.588" cy="670.836" r="1.47761" transform="rotate(-180 279.588 670.836)" fill="#1F95F2"/>
<circle cx="259.032" cy="670.836" r="1.47761" transform="rotate(-180 259.032 670.836)" fill="#1F95F2"/>
<circle cx="238.478" cy="670.835" r="1.47761" transform="rotate(-180 238.478 670.835)" fill="#1F95F2"/>
<circle cx="320.698" cy="649.164" r="1.47761" transform="rotate(-180 320.698 649.164)" fill="#1F95F2"/>
<circle cx="300.143" cy="649.164" r="1.47761" transform="rotate(-180 300.143 649.164)" fill="#1F95F2"/>
<circle cx="279.588" cy="649.164" r="1.47761" transform="rotate(-180 279.588 649.164)" fill="#1F95F2"/>
<circle cx="259.032" cy="649.164" r="1.47761" transform="rotate(-180 259.032 649.164)" fill="#1F95F2"/>
<circle cx="238.478" cy="649.164" r="1.47761" transform="rotate(-180 238.478 649.164)" fill="#1F95F2"/>
<circle cx="320.698" cy="627.492" r="1.47761" transform="rotate(-180 320.698 627.492)" fill="#1F95F2"/>
<circle cx="300.143" cy="627.492" r="1.47761" transform="rotate(-180 300.143 627.492)" fill="#1F95F2"/>
<circle cx="279.588" cy="627.492" r="1.47761" transform="rotate(-180 279.588 627.492)" fill="#1F95F2"/>
<circle cx="259.032" cy="627.492" r="1.47761" transform="rotate(-180 259.032 627.492)" fill="#1F95F2"/>
<circle cx="238.478" cy="627.492" r="1.47761" transform="rotate(-180 238.478 627.492)" fill="#1F95F2"/>
<circle cx="320.698" cy="605.82" r="1.47761" transform="rotate(-180 320.698 605.82)" fill="#1F95F2"/>
<circle cx="300.143" cy="605.82" r="1.47761" transform="rotate(-180 300.143 605.82)" fill="#1F95F2"/>
<circle cx="279.588" cy="605.82" r="1.47761" transform="rotate(-180 279.588 605.82)" fill="#1F95F2"/>
<circle cx="259.032" cy="605.82" r="1.47761" transform="rotate(-180 259.032 605.82)" fill="#1F95F2"/>
<circle cx="238.478" cy="605.82" r="1.47761" transform="rotate(-180 238.478 605.82)" fill="#1F95F2"/>
<circle cx="320.698" cy="584.148" r="1.47761" transform="rotate(-180 320.698 584.148)" fill="#1F95F2"/>
<circle cx="300.143" cy="584.148" r="1.47761" transform="rotate(-180 300.143 584.148)" fill="#1F95F2"/>
<circle cx="279.588" cy="584.148" r="1.47761" transform="rotate(-180 279.588 584.148)" fill="#1F95F2"/>
<circle cx="259.032" cy="584.148" r="1.47761" transform="rotate(-180 259.032 584.148)" fill="#1F95F2"/>
<circle cx="238.478" cy="584.148" r="1.47761" transform="rotate(-180 238.478 584.148)" fill="#1F95F2"/>
<circle cx="320.698" cy="562.477" r="1.47761" transform="rotate(-180 320.698 562.477)" fill="#1F95F2"/>
<circle cx="300.143" cy="562.477" r="1.47761" transform="rotate(-180 300.143 562.477)" fill="#1F95F2"/>
<circle cx="279.588" cy="562.477" r="1.47761" transform="rotate(-180 279.588 562.477)" fill="#1F95F2"/>
<circle cx="259.032" cy="562.477" r="1.47761" transform="rotate(-180 259.032 562.477)" fill="#1F95F2"/>
<circle cx="238.478" cy="562.477" r="1.47761" transform="rotate(-180 238.478 562.477)" fill="#1F95F2"/>
<circle cx="560.698" cy="1041.52" r="1.47761" transform="rotate(-180 560.698 1041.52)" fill="#1F95F2"/>
<circle cx="540.143" cy="1041.52" r="1.47761" transform="rotate(-180 540.143 1041.52)" fill="#1F95F2"/>
<circle cx="519.588" cy="1041.52" r="1.47761" transform="rotate(-180 519.588 1041.52)" fill="#1F95F2"/>
<circle cx="499.033" cy="1041.52" r="1.47761" transform="rotate(-180 499.033 1041.52)" fill="#1F95F2"/>
<circle cx="478.478" cy="1041.52" r="1.47761" transform="rotate(-180 478.478 1041.52)" fill="#1F95F2"/>
<circle cx="560.698" cy="1019.85" r="1.47761" transform="rotate(-180 560.698 1019.85)" fill="#1F95F2"/>
<circle cx="540.143" cy="1019.85" r="1.47761" transform="rotate(-180 540.143 1019.85)" fill="#1F95F2"/>
<circle cx="519.588" cy="1019.85" r="1.47761" transform="rotate(-180 519.588 1019.85)" fill="#1F95F2"/>
<circle cx="499.032" cy="1019.85" r="1.47761" transform="rotate(-180 499.032 1019.85)" fill="#1F95F2"/>
<circle cx="478.478" cy="1019.85" r="1.47761" transform="rotate(-180 478.478 1019.85)" fill="#1F95F2"/>
<circle cx="560.698" cy="998.18" r="1.47761" transform="rotate(-180 560.698 998.18)" fill="#1F95F2"/>
<circle cx="540.143" cy="998.179" r="1.47761" transform="rotate(-180 540.143 998.179)" fill="#1F95F2"/>
<circle cx="519.588" cy="998.179" r="1.47761" transform="rotate(-180 519.588 998.179)" fill="#1F95F2"/>
<circle cx="499.032" cy="998.179" r="1.47761" transform="rotate(-180 499.032 998.179)" fill="#1F95F2"/>
<circle cx="478.478" cy="998.179" r="1.47761" transform="rotate(-180 478.478 998.179)" fill="#1F95F2"/>
<circle cx="560.698" cy="976.508" r="1.47761" transform="rotate(-180 560.698 976.508)" fill="#1F95F2"/>
<circle cx="540.143" cy="976.508" r="1.47761" transform="rotate(-180 540.143 976.508)" fill="#1F95F2"/>
<circle cx="519.588" cy="976.508" r="1.47761" transform="rotate(-180 519.588 976.508)" fill="#1F95F2"/>
<circle cx="499.032" cy="976.508" r="1.47761" transform="rotate(-180 499.032 976.508)" fill="#1F95F2"/>
<circle cx="478.478" cy="976.507" r="1.47761" transform="rotate(-180 478.478 976.507)" fill="#1F95F2"/>
<circle cx="560.698" cy="954.836" r="1.47761" transform="rotate(-180 560.698 954.836)" fill="#1F95F2"/>
<circle cx="540.143" cy="954.836" r="1.47761" transform="rotate(-180 540.143 954.836)" fill="#1F95F2"/>
<circle cx="519.588" cy="954.836" r="1.47761" transform="rotate(-180 519.588 954.836)" fill="#1F95F2"/>
<circle cx="499.032" cy="954.836" r="1.47761" transform="rotate(-180 499.032 954.836)" fill="#1F95F2"/>
<circle cx="478.478" cy="954.835" r="1.47761" transform="rotate(-180 478.478 954.835)" fill="#1F95F2"/>
<circle cx="560.698" cy="933.164" r="1.47761" transform="rotate(-180 560.698 933.164)" fill="#1F95F2"/>
<circle cx="540.143" cy="933.164" r="1.47761" transform="rotate(-180 540.143 933.164)" fill="#1F95F2"/>
<circle cx="519.588" cy="933.164" r="1.47761" transform="rotate(-180 519.588 933.164)" fill="#1F95F2"/>
<circle cx="499.032" cy="933.164" r="1.47761" transform="rotate(-180 499.032 933.164)" fill="#1F95F2"/>
<circle cx="478.478" cy="933.164" r="1.47761" transform="rotate(-180 478.478 933.164)" fill="#1F95F2"/>
<circle cx="560.698" cy="911.492" r="1.47761" transform="rotate(-180 560.698 911.492)" fill="#1F95F2"/>
<circle cx="540.143" cy="911.492" r="1.47761" transform="rotate(-180 540.143 911.492)" fill="#1F95F2"/>
<circle cx="519.588" cy="911.492" r="1.47761" transform="rotate(-180 519.588 911.492)" fill="#1F95F2"/>
<circle cx="499.032" cy="911.492" r="1.47761" transform="rotate(-180 499.032 911.492)" fill="#1F95F2"/>
<circle cx="478.478" cy="911.492" r="1.47761" transform="rotate(-180 478.478 911.492)" fill="#1F95F2"/>
<circle cx="560.698" cy="889.82" r="1.47761" transform="rotate(-180 560.698 889.82)" fill="#1F95F2"/>
<circle cx="540.143" cy="889.82" r="1.47761" transform="rotate(-180 540.143 889.82)" fill="#1F95F2"/>
<circle cx="519.588" cy="889.82" r="1.47761" transform="rotate(-180 519.588 889.82)" fill="#1F95F2"/>
<circle cx="499.032" cy="889.82" r="1.47761" transform="rotate(-180 499.032 889.82)" fill="#1F95F2"/>
<circle cx="478.478" cy="889.82" r="1.47761" transform="rotate(-180 478.478 889.82)" fill="#1F95F2"/>
<circle cx="560.698" cy="868.148" r="1.47761" transform="rotate(-180 560.698 868.148)" fill="#1F95F2"/>
<circle cx="540.143" cy="868.148" r="1.47761" transform="rotate(-180 540.143 868.148)" fill="#1F95F2"/>
<circle cx="519.588" cy="868.148" r="1.47761" transform="rotate(-180 519.588 868.148)" fill="#1F95F2"/>
<circle cx="499.032" cy="868.148" r="1.47761" transform="rotate(-180 499.032 868.148)" fill="#1F95F2"/>
<circle cx="478.478" cy="868.148" r="1.47761" transform="rotate(-180 478.478 868.148)" fill="#1F95F2"/>
<circle cx="560.698" cy="846.477" r="1.47761" transform="rotate(-180 560.698 846.477)" fill="#1F95F2"/>
<circle cx="540.143" cy="846.477" r="1.47761" transform="rotate(-180 540.143 846.477)" fill="#1F95F2"/>
<circle cx="519.588" cy="846.477" r="1.47761" transform="rotate(-180 519.588 846.477)" fill="#1F95F2"/>
<circle cx="499.032" cy="846.477" r="1.47761" transform="rotate(-180 499.032 846.477)" fill="#1F95F2"/>
<circle cx="478.478" cy="846.477" r="1.47761" transform="rotate(-180 478.478 846.477)" fill="#1F95F2"/>
<path opacity="0.2" d="M5.60012 54.3476H59.0004V0" fill="#F3EAFF"/>
<path opacity="0.2" d="M91.6456 80.7275H106.843C112.65 80.7275 118.221 83.0775 122.327 87.2566L133.073 98.1924C137.179 102.372 139.488 108.041 139.488 113.952V129.418C139.488 135.329 137.179 140.999 133.073 145.178L122.327 156.114C118.221 160.293 112.65 162.643 106.843 162.643H91.6456C85.838 162.643 80.2671 160.293 76.1609 156.114L65.4156 145.178C61.3093 140.999 59.0004 135.329 59.0004 129.418V113.952C59.0004 108.041 61.3093 102.372 65.4156 98.1924L76.1609 87.2566C80.2671 83.0775 85.838 80.7275 91.6456 80.7275Z" fill="#D7F7FF"/>
<path d="M12.5653 250.743C18.8849 250.743 18.8849 244.357 25.2044 244.357C31.524 244.357 31.524 250.743 37.8435 250.743C44.1631 250.743 44.1631 244.357 50.4826 244.357C56.8022 244.357 56.8022 250.743 63.1217 250.743C69.4413 250.743 69.4413 244.357 75.7608 244.357C82.0804 244.357 82.0897 250.743 88.4092 250.743" stroke="#E98C95" stroke-miterlimit="10"/>
<path d="M12.5653 242.837C18.8849 242.837 18.8849 236.451 25.2044 236.451C31.524 236.451 31.524 242.837 37.8435 242.837C44.1631 242.837 44.1631 236.451 50.4826 236.451C56.8022 236.451 56.8022 242.837 63.1217 242.837C69.4413 242.837 69.4413 236.451 75.7608 236.451C82.0804 236.451 82.0897 242.837 88.4092 242.837" stroke="#E98C95" stroke-miterlimit="10"/>
<path d="M12.5652 234.931C18.8847 234.931 18.8847 228.545 25.2043 228.545C31.5238 228.545 31.5238 234.931 37.8434 234.931C44.1629 234.931 44.1629 228.545 50.4825 228.545C56.802 228.545 56.802 234.931 63.1216 234.931C69.4411 234.931 69.4411 228.545 75.7607 228.545C82.0802 228.545 82.0896 234.931 88.4091 234.931" stroke="#E98C95" stroke-miterlimit="10"/>
<path opacity="0.8" d="M-18.3913 379.057C-10.5957 411.966 21.6693 432.149 53.682 424.141C85.6948 416.134 105.328 382.959 97.5388 350.05" fill="#D5F0DA"/>
<path opacity="0.8" d="M29.2046 521.086C61.9047 521.086 88.4092 548.061 88.4092 581.341C88.4092 614.621 61.9047 641.596 29.2046 641.596C-3.49545 641.596 -30 614.621 -30 581.341C-30 548.061 -3.49545 521.086 29.2046 521.086ZM29.2046 609.678C44.584 609.678 57.0481 596.993 57.0481 581.341C57.0481 565.689 44.584 553.003 29.2046 553.003C13.8253 553.003 1.36118 565.689 1.36118 581.341C1.36118 596.993 13.8253 609.678 29.2046 609.678Z" fill="#D7F7FF"/>
</svg>
