<svg width="305" height="642" viewBox="0 0 305 642" fill="none" xmlns="http://www.w3.org/2000/svg">
<circle cx="83.698" cy="247.522" r="1.47761" transform="rotate(-180 83.698 247.522)" fill="#1F95F2"/>
<circle cx="63.1428" cy="247.522" r="1.47761" transform="rotate(-180 63.1428 247.522)" fill="#1F95F2"/>
<circle cx="42.5876" cy="247.522" r="1.47761" transform="rotate(-180 42.5876 247.522)" fill="#1F95F2"/>
<circle cx="22.0325" cy="247.522" r="1.47761" transform="rotate(-180 22.0325 247.522)" fill="#1F95F2"/>
<circle cx="1.47765" cy="247.522" r="1.47761" transform="rotate(-180 1.47765 247.522)" fill="#1F95F2"/>
<circle cx="83.6984" cy="225.851" r="1.47761" transform="rotate(-180 83.6984 225.851)" fill="#1F95F2"/>
<circle cx="63.1431" cy="225.851" r="1.47761" transform="rotate(-180 63.1431 225.851)" fill="#1F95F2"/>
<circle cx="42.5876" cy="225.851" r="1.47761" transform="rotate(-180 42.5876 225.851)" fill="#1F95F2"/>
<circle cx="22.0325" cy="225.851" r="1.47761" transform="rotate(-180 22.0325 225.851)" fill="#1F95F2"/>
<circle cx="1.47765" cy="225.851" r="1.47761" transform="rotate(-180 1.47765 225.851)" fill="#1F95F2"/>
<circle cx="83.6984" cy="204.18" r="1.47761" transform="rotate(-180 83.6984 204.18)" fill="#1F95F2"/>
<circle cx="63.1431" cy="204.179" r="1.47761" transform="rotate(-180 63.1431 204.179)" fill="#1F95F2"/>
<circle cx="42.5876" cy="204.179" r="1.47761" transform="rotate(-180 42.5876 204.179)" fill="#1F95F2"/>
<circle cx="22.0325" cy="204.179" r="1.47761" transform="rotate(-180 22.0325 204.179)" fill="#1F95F2"/>
<circle cx="1.47765" cy="204.179" r="1.47761" transform="rotate(-180 1.47765 204.179)" fill="#1F95F2"/>
<circle cx="83.6984" cy="182.508" r="1.47761" transform="rotate(-180 83.6984 182.508)" fill="#1F95F2"/>
<circle cx="63.1431" cy="182.508" r="1.47761" transform="rotate(-180 63.1431 182.508)" fill="#1F95F2"/>
<circle cx="42.5876" cy="182.508" r="1.47761" transform="rotate(-180 42.5876 182.508)" fill="#1F95F2"/>
<circle cx="22.0325" cy="182.508" r="1.47761" transform="rotate(-180 22.0325 182.508)" fill="#1F95F2"/>
<circle cx="1.47765" cy="182.507" r="1.47761" transform="rotate(-180 1.47765 182.507)" fill="#1F95F2"/>
<circle cx="83.6984" cy="160.836" r="1.47761" transform="rotate(-180 83.6984 160.836)" fill="#1F95F2"/>
<circle cx="63.1431" cy="160.836" r="1.47761" transform="rotate(-180 63.1431 160.836)" fill="#1F95F2"/>
<circle cx="42.5876" cy="160.836" r="1.47761" transform="rotate(-180 42.5876 160.836)" fill="#1F95F2"/>
<circle cx="22.0325" cy="160.836" r="1.47761" transform="rotate(-180 22.0325 160.836)" fill="#1F95F2"/>
<circle cx="1.47765" cy="160.835" r="1.47761" transform="rotate(-180 1.47765 160.835)" fill="#1F95F2"/>
<circle cx="83.6984" cy="139.164" r="1.47761" transform="rotate(-180 83.6984 139.164)" fill="#1F95F2"/>
<circle cx="63.1431" cy="139.164" r="1.47761" transform="rotate(-180 63.1431 139.164)" fill="#1F95F2"/>
<circle cx="42.5876" cy="139.164" r="1.47761" transform="rotate(-180 42.5876 139.164)" fill="#1F95F2"/>
<circle cx="22.0325" cy="139.164" r="1.47761" transform="rotate(-180 22.0325 139.164)" fill="#1F95F2"/>
<circle cx="1.47765" cy="139.163" r="1.47761" transform="rotate(-180 1.47765 139.163)" fill="#1F95F2"/>
<circle cx="83.6984" cy="117.492" r="1.47761" transform="rotate(-180 83.6984 117.492)" fill="#1F95F2"/>
<circle cx="63.1431" cy="117.492" r="1.47761" transform="rotate(-180 63.1431 117.492)" fill="#1F95F2"/>
<circle cx="42.5876" cy="117.492" r="1.47761" transform="rotate(-180 42.5876 117.492)" fill="#1F95F2"/>
<circle cx="22.0325" cy="117.492" r="1.47761" transform="rotate(-180 22.0325 117.492)" fill="#1F95F2"/>
<circle cx="1.47765" cy="117.492" r="1.47761" transform="rotate(-180 1.47765 117.492)" fill="#1F95F2"/>
<circle cx="83.6984" cy="95.8202" r="1.47761" transform="rotate(-180 83.6984 95.8202)" fill="#1F95F2"/>
<circle cx="63.1431" cy="95.8202" r="1.47761" transform="rotate(-180 63.1431 95.8202)" fill="#1F95F2"/>
<circle cx="42.5876" cy="95.8202" r="1.47761" transform="rotate(-180 42.5876 95.8202)" fill="#1F95F2"/>
<circle cx="22.0325" cy="95.8202" r="1.47761" transform="rotate(-180 22.0325 95.8202)" fill="#1F95F2"/>
<circle cx="1.47765" cy="95.8202" r="1.47761" transform="rotate(-180 1.47765 95.8202)" fill="#1F95F2"/>
<circle cx="83.6984" cy="74.1484" r="1.47761" transform="rotate(-180 83.6984 74.1484)" fill="#1F95F2"/>
<circle cx="63.1431" cy="74.1484" r="1.47761" transform="rotate(-180 63.1431 74.1484)" fill="#1F95F2"/>
<circle cx="42.5876" cy="74.1484" r="1.47761" transform="rotate(-180 42.5876 74.1484)" fill="#1F95F2"/>
<circle cx="22.0325" cy="74.1484" r="1.47761" transform="rotate(-180 22.0325 74.1484)" fill="#1F95F2"/>
<circle cx="1.47765" cy="74.1484" r="1.47761" transform="rotate(-180 1.47765 74.1484)" fill="#1F95F2"/>
<circle cx="83.6984" cy="52.4775" r="1.47761" transform="rotate(-180 83.6984 52.4775)" fill="#1F95F2"/>
<circle cx="63.1431" cy="52.4775" r="1.47761" transform="rotate(-180 63.1431 52.4775)" fill="#1F95F2"/>
<circle cx="42.5876" cy="52.4775" r="1.47761" transform="rotate(-180 42.5876 52.4775)" fill="#1F95F2"/>
<circle cx="22.0325" cy="52.4775" r="1.47761" transform="rotate(-180 22.0325 52.4775)" fill="#1F95F2"/>
<circle cx="1.47765" cy="52.4775" r="1.47761" transform="rotate(-180 1.47765 52.4775)" fill="#1F95F2"/>
<path d="M155 456.682C146.834 456.682 146.834 448.431 138.669 448.431C130.503 448.431 130.503 456.682 122.337 456.682C114.172 456.682 114.172 448.431 106.006 448.431C97.8404 448.431 97.8404 456.682 89.6747 456.682C81.509 456.682 81.509 448.431 73.3434 448.431C65.1777 448.431 65.1657 456.682 57 456.682" stroke="#E98C95" stroke-miterlimit="10"/>
<path d="M155 446.467C146.834 446.467 146.834 438.215 138.669 438.215C130.503 438.215 130.503 446.467 122.337 446.467C114.172 446.467 114.172 438.215 106.006 438.215C97.8404 438.215 97.8404 446.467 89.6747 446.467C81.509 446.467 81.509 438.215 73.3434 438.215C65.1777 438.215 65.1657 446.467 57 446.467" stroke="#E98C95" stroke-miterlimit="10"/>
<path d="M155 436.251C146.834 436.251 146.834 428 138.669 428C130.503 428 130.503 436.251 122.337 436.251C114.172 436.251 114.172 428 106.006 428C97.8404 428 97.8404 436.251 89.6747 436.251C81.509 436.251 81.509 428 73.3434 428C65.1777 428 65.1657 436.251 57 436.251" stroke="#E98C95" stroke-miterlimit="10"/>
<path opacity="0.2" d="M288.888 54.3476H235.487V0" fill="#F3EAFF"/>
<path opacity="0.2" d="M202.842 80.7275H187.645C181.838 80.7275 176.267 83.0775 172.16 87.2566L161.415 98.1924C157.309 102.372 155 108.041 155 113.952V129.418C155 135.329 157.309 140.999 161.415 145.178L172.16 156.114C176.267 160.293 181.838 162.643 187.645 162.643H202.842C208.65 162.643 214.221 160.293 218.327 156.114L229.072 145.178C233.178 140.999 235.487 135.329 235.487 129.418V113.952C235.487 108.041 233.178 102.372 229.072 98.1924L218.327 87.2566C214.221 83.0775 208.65 80.7275 202.842 80.7275Z" fill="#D7F7FF"/>
<path d="M281.922 250.743C275.603 250.743 275.603 244.357 269.283 244.357C262.964 244.357 262.964 250.743 256.644 250.743C250.325 250.743 250.325 244.357 244.005 244.357C237.686 244.357 237.686 250.743 231.366 250.743C225.046 250.743 225.046 244.357 218.727 244.357C212.407 244.357 212.398 250.743 206.078 250.743" stroke="#E98C95" stroke-miterlimit="10"/>
<path d="M281.922 242.837C275.603 242.837 275.603 236.451 269.283 236.451C262.964 236.451 262.964 242.837 256.644 242.837C250.325 242.837 250.325 236.451 244.005 236.451C237.686 236.451 237.686 242.837 231.366 242.837C225.046 242.837 225.046 236.451 218.727 236.451C212.407 236.451 212.398 242.837 206.078 242.837" stroke="#E98C95" stroke-miterlimit="10"/>
<path d="M281.923 234.931C275.603 234.931 275.603 228.545 269.283 228.545C262.964 228.545 262.964 234.931 256.644 234.931C250.325 234.931 250.325 228.545 244.005 228.545C237.686 228.545 237.686 234.931 231.366 234.931C225.047 234.931 225.047 228.545 218.727 228.545C212.407 228.545 212.398 234.931 206.079 234.931" stroke="#E98C95" stroke-miterlimit="10"/>
<path opacity="0.8" d="M312.879 379.057C305.083 411.966 272.818 432.149 240.806 424.141C208.793 416.134 189.16 382.959 196.949 350.05" fill="#D5F0DA"/>
<path opacity="0.8" d="M265.283 521.086C232.583 521.086 206.078 548.061 206.078 581.341C206.078 614.621 232.583 641.596 265.283 641.596C297.983 641.596 324.488 614.621 324.488 581.341C324.488 548.061 297.983 521.086 265.283 521.086ZM265.283 609.678C249.904 609.678 237.44 596.993 237.44 581.341C237.44 565.689 249.904 553.003 265.283 553.003C280.662 553.003 293.127 565.689 293.127 581.341C293.127 596.993 280.662 609.678 265.283 609.678Z" fill="#D7F7FF"/>
</svg>
