<svg width="23" height="23" viewBox="0 0 23 23" fill="none" xmlns="http://www.w3.org/2000/svg">
<path d="M19.9887 0.197411C19.7257 -0.0658036 19.2989 -0.0658036 19.0359 0.197411L13.8426 5.39063H2.06641C0.951784 5.39063 0.0449219 6.29749 0.0449219 7.41212V16.8455C0.0449219 17.9603 0.951784 18.867 2.06641 18.867H2.78516V22.326C2.78516 22.5999 2.95099 22.8467 3.20455 22.95C3.4618 23.0549 3.75186 22.9902 3.94067 22.7973L7.78536 18.867H15.6328C16.7475 18.867 17.6543 17.9603 17.6543 16.8455V9.20232L22.8476 4.00911C23.1106 3.74589 23.1106 3.31931 22.8476 3.05609L19.9887 0.197411ZM13.7946 11.1561L11.8887 9.25023L17.6064 3.53269L19.5123 5.43853L13.7946 11.1561ZM11.1708 10.4382L12.6066 11.8739L10.1457 12.8991L11.1708 10.4382ZM16.3067 16.8455C16.3067 17.2172 16.0043 17.5194 15.6328 17.5194H7.50197C7.3207 17.5194 7.14698 17.5925 7.02029 17.722L4.13282 20.6737V18.1932C4.13282 17.8212 3.83118 17.5194 3.45899 17.5194H2.06641C1.69493 17.5194 1.39258 17.2172 1.39258 16.8455V7.41212C1.39258 7.04046 1.69493 6.73829 2.06641 6.73829H12.4948L10.4593 8.77381C10.4031 8.82996 10.3475 8.90735 10.3105 8.99895L8.44533 13.4766H4.80665C4.43446 13.4766 4.13282 13.7782 4.13282 14.1504C4.13282 14.5224 4.43446 14.8237 4.80665 14.8237H8.8942H8.89472C8.98141 14.8237 9.07441 14.806 9.15952 14.7695L14.0458 12.7343C14.1273 12.7025 14.2094 12.6473 14.2711 12.5855L16.3067 10.55V16.8455ZM20.4651 4.48552L18.5593 2.57968L19.5123 1.62684L21.4181 3.53269L20.4651 4.48552Z" fill="#FF5A43"/>
</svg>
