<svg width="23" height="23" viewBox="0 0 23 23" fill="none" xmlns="http://www.w3.org/2000/svg">
<path d="M18.3325 11.4623V0H2.96147C1.32852 0 0 1.28944 0 2.92239V20.1257H0.0142402C0.16392 21.7355 1.52173 23 3.16991 23H17.1516C20.3764 23 23 20.4155 23 17.1907C23 14.3704 20.9932 12.01 18.3325 11.4623ZM16.9827 11.345C14.0134 11.4297 11.5917 13.7384 11.3276 16.6601H5.41964V1.31069H16.9827V11.345ZM2.96147 1.31069H4.06983V16.6601H3.16991C2.49289 16.6601 1.86529 16.8742 1.34977 17.2372V2.92239C1.34977 2.03366 2.07279 1.31069 2.96147 1.31069ZM3.16991 21.6502C2.16627 21.6502 1.34977 20.8337 1.34977 19.8301C1.34977 18.8264 2.16627 18.0099 3.16991 18.0099H11.3609C11.4171 18.4087 11.5134 18.7946 11.646 19.1635H3.42044V20.5133H12.3416C12.6345 20.936 12.9815 21.3183 13.3726 21.6503H3.16991V21.6502ZM17.1517 21.6893C14.6711 21.6893 12.6531 19.6712 12.6531 17.1907C12.6531 14.7103 14.6711 12.6922 17.1517 12.6922C19.6322 12.6922 21.6502 14.7103 21.6502 17.1907C21.6502 19.6712 19.6322 21.6893 17.1517 21.6893Z" fill="#FF5A43"/>
</svg>
