<svg width="23" height="23" viewBox="0 0 23 23" fill="none" xmlns="http://www.w3.org/2000/svg">
<path d="M17.5664 22.9994V20.4272L20.1392 23L22.9979 20.1412L17.5664 14.7098V0H0.00244141V17.2142L5.78765 22.9994H17.5664ZM20.1392 19.1883L21.0921 20.1413L20.1392 21.0942L19.1863 20.1412L20.1392 19.1883ZM19.1863 18.2354L18.2334 19.1883L11.8144 12.7694L12.7673 11.8165L19.1863 18.2354ZM10.8615 11.8166L10.4975 11.4526L10.0211 10.0232L11.4504 10.4997L11.8144 10.8637L10.8615 11.8166ZM1.35006 1.34762H16.2188V13.3622L12.1784 9.32177L7.89025 7.89239L9.31967 12.1805L16.2188 19.0796V21.6518H6.74055V16.2613H1.35006V1.34762ZM5.39293 20.6989L2.30297 17.6089H5.39293V20.6989Z" fill="#FF5A43"/>
</svg>
