<svg width="16" height="16" viewBox="0 0 16 16" fill="none" xmlns="http://www.w3.org/2000/svg">
<path d="M8 16C12.4183 16 16 12.4183 16 8C16 3.58172 12.4183 0 8 0C3.58172 0 0 3.58172 0 8C0 12.4183 3.58172 16 8 16Z" fill="#F3FFF8"/>
<path d="M4.68662 7.32863C4.93229 7.32548 5.09292 7.41367 5.2315 7.5554C5.75434 8.07823 6.28032 8.60107 6.79686 9.12705C6.88505 9.21524 6.92914 9.21209 7.01418 9.12705C8.25827 7.87666 9.50552 6.63256 10.7496 5.38532C10.9291 5.20579 11.1307 5.10815 11.3858 5.1554C11.9024 5.24989 12.1165 5.84831 11.7795 6.25146C11.7417 6.29556 11.7008 6.3365 11.6598 6.37744C10.2614 7.77587 8.863 9.1743 7.46457 10.5727C7.08347 10.9538 6.72757 10.9538 6.34961 10.5759C5.6567 9.88296 4.96064 9.19004 4.27088 8.49398C3.88977 8.11288 4.0315 7.50815 4.52914 7.35697C4.59528 7.33493 4.66458 7.33178 4.68662 7.32863Z" fill="#4AAF50"/>
</svg>
