<svg width="23" height="19" viewBox="0 0 23 19" fill="none" xmlns="http://www.w3.org/2000/svg">
<path d="M23 7.00792V0.166992H12.7548V1.51469H1.34775V14.4172H0V18.8329H23V14.4172H21.6523V7.00792H23ZM14.1025 1.51465H21.6523V5.66026H15.5346L14.1025 6.33315V1.51465ZM21.6523 17.4853H1.34766V15.7649H10.8267V16.3973H12.1743V15.7649H21.6523V17.4853ZM7.09721 10.666C6.72795 10.666 6.42751 10.3656 6.42751 9.9963C6.42751 9.62705 6.72795 9.32661 7.09721 9.32661C7.46651 9.32661 7.76695 9.62705 7.76695 9.9963C7.76695 10.3656 7.46651 10.666 7.09721 10.666ZM6.71685 12.0137H7.47891C8.35457 12.0137 9.06694 12.7261 9.06694 13.6017V14.4172H5.12878V13.6017C5.12882 12.7261 5.84119 12.0137 6.71685 12.0137ZM20.3046 14.4172H10.4146V13.6017C10.4146 12.4755 9.77684 11.496 8.84386 11.0038C9.01569 10.7071 9.1146 10.3631 9.1146 9.9963C9.1146 8.8839 8.20961 7.97895 7.09721 7.97895C5.98481 7.97895 5.07986 8.88395 5.07986 9.9963C5.07986 10.3634 5.17886 10.7075 5.35087 11.0043C4.41843 11.4967 3.78112 12.4759 3.78112 13.6017V14.4172H2.69536V2.86239H12.7548V8.45535L15.8354 7.00792H20.3046V14.4172Z" fill="#FF5A43"/>
</svg>
