<svg xmlns="http://www.w3.org/2000/svg" width="22" height="23" fill="none" xmlns:v="https://vecta.io/nano"><g clip-path="url(#A)"><path d="M11 23c6.075 0 11-4.925 11-11S17.075 1 11 1 0 5.925 0 12s4.925 11 11 11z" fill="#e7ffe7"/><g clip-path="url(#B)"><path d="M15.083 7.741h-1.167V6.645H8.083v1.096H6.917c-.642 0-1.167.493-1.167 1.096v.548c0 1.398 1.12 2.538 2.561 2.708.368.822 1.155 1.442 2.106 1.623v1.699H8.083v1.096h5.833v-1.096h-2.333v-1.699c.951-.181 1.738-.8 2.106-1.623 1.441-.17 2.561-1.31 2.561-2.708v-.548c0-.603-.525-1.096-1.167-1.096zM6.917 9.385v-.548h1.167v2.094c-.677-.23-1.167-.833-1.167-1.546zM11 12.675c-.963 0-1.75-.74-1.75-1.645V7.741h3.5v3.289c0 .905-.787 1.645-1.75 1.645zm4.083-3.289c0 .713-.49 1.316-1.167 1.546V8.837h1.167v.548z" fill="#4aaf50"/></g></g><defs><clipPath id="A"><path fill="#fff" transform="translate(0 .848)" d="M0 0h22v22H0z"/></clipPath><clipPath id="B"><path fill="#fff" transform="translate(4 5)" d="M0 0h14v13.156H0z"/></clipPath></defs></svg>