<svg xmlns="http://www.w3.org/2000/svg" width="17" height="12" fill="none" xmlns:v="https://vecta.io/nano"><g stroke="#ff5a43" stroke-width=".5" stroke-miterlimit="10"><path d="M13.512 9.738H3.61c-.568 0-1.014-.446-1.014-1.014V1.784c0-.568.446-1.014 1.014-1.014h9.901c.568 0 1.015.446 1.015 1.014v6.98c0 .527-.446.974-1.014.974z"/><path d="M15.054 10.428H1.947A1.18 1.18 0 0 1 .77 9.251h15.42c.04.649-.487 1.177-1.136 1.177zM7.384 2.92v2.76c0 .081.081.162.162.122l2.272-1.42c.081-.041.081-.162 0-.243l-2.272-1.3c-.081-.041-.162 0-.162.081z"/><path d="M5.639 7.344h6.817" stroke-linecap="round" stroke-linejoin="round"/></g><path d="M4.544 7.627c.224 0 .406-.182.406-.406s-.182-.406-.406-.406-.406.182-.406.406.182.406.406.406z" fill="#ff5a43"/></svg>