<svg xmlns="http://www.w3.org/2000/svg" width="14" height="16" fill="#ff5a43" xmlns:v="https://vecta.io/nano"><path d="M8.737 14.884h-.204-7.065C.572 14.884 0 14.312 0 13.411V1.46C0 .719.425.173 1.113.03c.108-.022.225-.022.338-.022L9.621 0c.866-.004 1.469.671 1.46 1.455l-.009 5.376c0 .13.03.182.165.212 1.334.325 2.313 1.395 2.525 2.742.217 1.386-.524 2.829-1.78 3.457-.104.052-.134.1-.104.221l.373 1.776c.048.234 0 .433-.178.589a.6.6 0 0 1-.667.1l-.827-.372a.3.3 0 0 0-.29.004l-.775.368c-.234.113-.455.095-.654-.065s-.256-.381-.199-.628l.078-.351zm.381-1.533c-1.503-.689-2.175-2.101-1.928-3.526.308-1.767 1.404-2.725 3.201-2.872l.004-.095V1.386c0-.061-.004-.121-.017-.178-.087-.36-.355-.554-.771-.554h-8.2-.082C1.079.658.871.767.767.983c-.087.178-.147.39-.152.585L.611 13.407c0 .589.277.866.866.866H8.72h.173l.225-.923zm1.347-.364c1.46 0 2.651-1.2 2.655-2.673S11.926 7.62 10.466 7.62c-1.469 0-2.681 1.213-2.677 2.69a2.66 2.66 0 0 0 2.677 2.677zm.736.567c-.468.056-.918.091-1.369 0-.082-.017-.108.022-.126.1l-.251 1.087-.13.576.853-.386c.182-.091.342-.087.524 0l.879.39-.381-1.767zM5.263 2.244h3.149c.251 0 .373.121.36.351a.27.27 0 0 1-.23.273c-.074.017-.152.017-.225.017H2.201c-.052 0-.108 0-.16-.004-.191-.026-.312-.169-.303-.338.009-.186.13-.299.334-.299h2.24.953zm0 1.984h3.132c.269 0 .39.121.373.355-.009.139-.078.238-.217.269-.078.017-.16.022-.243.022H2.192a.95.95 0 0 1-.225-.022c-.16-.043-.256-.186-.238-.342.022-.169.126-.273.303-.277l.845-.004h2.387zm-.017 2.014h3.149c.212 0 .329.074.364.225.052.217-.065.39-.29.416-.052.009-.108.004-.16.004H2.192c-.052 0-.108.004-.16-.004-.186-.026-.312-.173-.299-.342.013-.186.13-.295.338-.295h2.92l.256-.004zm7.143 4.042c.022 1.018-.832 1.923-1.832 1.941-1.096.022-1.993-.81-2.01-1.863-.017-1.074.819-1.954 1.884-1.975s1.932.823 1.958 1.897zm-.68.004c-.017-.723-.593-1.269-1.317-1.252-.693.017-1.248.602-1.235 1.304s.611 1.256 1.339 1.239c.667-.017 1.23-.615 1.213-1.291z"/></svg>