<svg xmlns="http://www.w3.org/2000/svg" width="18" height="16" fill="none" xmlns:v="https://vecta.io/nano"><style><![CDATA[.B{stroke:#ff5a43}.C{stroke-width:.5}.D{stroke-linejoin:round}.E{stroke-linecap:round}]]></style><g clip-path="url(#A)" class="B C D"><path d="M16 12.718V9.436a.82.82 0 0 0-.41-.71l-2.872-1.641a.82.82 0 0 0-.821 0L9.026 8.726a.82.82 0 0 0-.41.71v3.282a.82.82 0 0 0 .41.71l2.872 1.641a.82.82 0 0 0 .821 0l2.872-1.641a.82.82 0 0 0 .41-.71z"/><g class="E"><path d="M8.726 9.009l3.582 2.072 3.582-2.072m-3.582 6.203v-4.135"/></g></g><g clip-path="url(#B)" class="B C D"><path d="M8.615 12.718V9.436a.82.82 0 0 0-.41-.71L5.333 7.085a.82.82 0 0 0-.821 0L1.641 8.726a.82.82 0 0 0-.41.71v3.282a.82.82 0 0 0 .41.71l2.872 1.641a.82.82 0 0 0 .821 0l2.872-1.641a.82.82 0 0 0 .41-.71z"/><g class="E"><path d="M1.342 9.009l3.582 2.072 3.582-2.072m-3.583 6.203v-4.135"/></g></g><g clip-path="url(#C)" class="B C D"><path d="M12.308 6.564V3.282a.82.82 0 0 0-.41-.71L9.026.931a.82.82 0 0 0-.821 0L5.333 2.572a.82.82 0 0 0-.41.71v3.282a.82.82 0 0 0 .41.71l2.872 1.641a.82.82 0 0 0 .821 0l2.872-1.641a.82.82 0 0 0 .41-.71z"/><g class="E"><path d="M5.034 2.855l3.582 2.072 3.582-2.072M8.615 9.058V4.923"/></g></g><defs><clipPath id="A"><path fill="#fff" transform="translate(7.385 6.154)" d="M0 0h9.846v9.846H0z"/></clipPath><clipPath id="B"><path fill="#fff" transform="translate(0 6.154)" d="M0 0h9.846v9.846H0z"/></clipPath><clipPath id="C"><path fill="#fff" transform="translate(3.692)" d="M0 0h9.846v9.846H0z"/></clipPath></defs></svg>