<svg width="28" height="34" viewBox="0 0 28 34" fill="none" xmlns="http://www.w3.org/2000/svg">
<mask id="path-1-outside-1_1379_42237" maskUnits="userSpaceOnUse" x="0" y="0" width="28" height="34" fill="black">
<rect fill="white" width="28" height="34"/>
<path fill-rule="evenodd" clip-rule="evenodd" d="M19.5967 14.1565C18.0981 15.655 16.2646 16.4145 14.147 16.4145C12.0298 16.4145 10.1963 15.6548 8.69751 14.1567C7.19922 12.6584 6.43945 10.8249 6.43945 8.70702C6.43945 6.58959 7.19922 4.7561 8.69751 3.25781C10.1958 1.75952 12.029 1 14.147 1C16.2644 1 18.0979 1.75952 19.5964 3.25756C21.0949 4.75634 21.8545 6.58983 21.8545 8.70702C21.8545 10.8249 21.0947 12.6582 19.5967 14.1565ZM14.147 2.87524C12.522 2.87524 11.1733 3.43408 10.0237 4.58373C8.87378 5.73363 8.31469 7.08251 8.31469 8.70702C8.31469 10.332 8.87378 11.6809 10.0237 12.8305C11.1738 13.9802 12.5224 14.5393 14.147 14.5393C15.7717 14.5393 17.1206 13.9804 18.2705 12.8305C19.4201 11.6806 19.9792 10.332 19.9792 8.70702C19.9792 7.08251 19.4201 5.73363 18.2705 4.58373C17.1206 3.43408 15.7717 2.87524 14.147 2.87524ZM27.3737 23.5842C27.5024 24.3025 27.5898 24.9827 27.633 25.6062C27.6757 26.2156 27.6975 26.8515 27.6977 27.4963C27.6977 29.1672 27.1667 30.52 26.1193 31.5166C25.0849 32.5007 23.7168 32.9997 22.0529 32.9997H6.64476C4.98046 32.9997 3.6123 32.5007 2.57812 31.5166C1.531 30.5193 1 29.167 1 27.4966C1 26.854 1.02148 26.218 1.06396 25.6069C1.10718 24.9819 1.19434 24.3015 1.32324 23.5842C1.45312 22.8606 1.62036 22.1767 1.82031 21.5515C2.02734 20.9048 2.30859 20.2668 2.656 19.6553C3.01635 19.0207 3.44018 18.4683 3.91577 18.0132C4.41357 17.5369 5.0227 17.1543 5.72631 16.8757C6.42772 16.5979 7.20507 16.457 8.0371 16.457C8.36376 16.457 8.67967 16.5911 9.28929 16.9883C9.67039 17.2366 10.1098 17.5198 10.5954 17.8301C11.0139 18.0972 11.582 18.3474 12.2827 18.5737C12.9675 18.7952 13.6623 18.9075 14.3479 18.9075C15.0339 18.9075 15.7287 18.7952 16.4131 18.5737C17.1145 18.3472 17.6823 18.0969 18.1015 17.8298C18.5918 17.5166 19.031 17.2334 19.4065 16.9885C20.0166 16.5913 20.3325 16.4573 20.6591 16.4573C21.4909 16.4573 22.2685 16.5979 22.9702 16.8755C23.6743 17.1545 24.2832 17.5371 24.7805 18.0129C25.2561 18.4678 25.6799 19.0205 26.0405 19.6553C26.3884 20.2668 26.6694 20.905 26.8764 21.5513C27.0766 22.1765 27.2438 22.8606 27.3737 23.5842ZM22.0527 31.1245C23.2358 31.1245 24.143 30.8083 24.8264 30.1579C25.4965 29.5202 25.8222 28.6496 25.8225 27.4966C25.8222 26.8952 25.8022 26.3034 25.7624 25.7373V25.7368C25.7238 25.1802 25.6447 24.5674 25.528 23.9153C25.4128 23.2729 25.2656 22.6699 25.0905 22.123C24.9231 21.5998 24.694 21.081 24.4101 20.5818C24.1394 20.1052 23.8278 19.6968 23.4841 19.3679C23.1626 19.0603 22.7573 18.8081 22.28 18.6191C21.8381 18.4443 21.3418 18.3486 20.8027 18.3342C20.737 18.3691 20.6201 18.436 20.4306 18.5593C20.0451 18.8108 19.6132 19.0891 19.1106 19.4104C18.5561 19.7639 17.843 20.0825 16.99 20.3581C16.1191 20.6396 15.2302 20.7827 14.3481 20.7827C13.466 20.7827 12.5774 20.6396 11.706 20.3579C10.8537 20.0828 10.1404 19.7639 9.58665 19.4109C9.09544 19.0972 8.65111 18.8105 8.26561 18.5593C8.07616 18.4358 7.95922 18.3691 7.89354 18.3342C7.35472 18.3486 6.85839 18.4443 6.41674 18.6191C5.9392 18.8081 5.53393 19.0601 5.21239 19.3679C4.86865 19.697 4.55712 20.1055 4.28637 20.5815C4.00268 21.081 3.77392 21.5996 3.6062 22.1233C3.43139 22.6694 3.28442 23.2727 3.16894 23.9155C3.052 24.5664 2.97314 25.1789 2.93457 25.7366C2.89502 26.3049 2.87524 26.897 2.87524 27.4966C2.87524 28.6494 3.20092 29.5202 3.87109 30.1582C4.55419 30.8083 5.46142 31.1245 6.64476 31.1245H22.0527Z"/>
</mask>
<path fill-rule="evenodd" clip-rule="evenodd" d="M19.5967 14.1565C18.0981 15.655 16.2646 16.4145 14.147 16.4145C12.0298 16.4145 10.1963 15.6548 8.69751 14.1567C7.19922 12.6584 6.43945 10.8249 6.43945 8.70702C6.43945 6.58959 7.19922 4.7561 8.69751 3.25781C10.1958 1.75952 12.029 1 14.147 1C16.2644 1 18.0979 1.75952 19.5964 3.25756C21.0949 4.75634 21.8545 6.58983 21.8545 8.70702C21.8545 10.8249 21.0947 12.6582 19.5967 14.1565ZM14.147 2.87524C12.522 2.87524 11.1733 3.43408 10.0237 4.58373C8.87378 5.73363 8.31469 7.08251 8.31469 8.70702C8.31469 10.332 8.87378 11.6809 10.0237 12.8305C11.1738 13.9802 12.5224 14.5393 14.147 14.5393C15.7717 14.5393 17.1206 13.9804 18.2705 12.8305C19.4201 11.6806 19.9792 10.332 19.9792 8.70702C19.9792 7.08251 19.4201 5.73363 18.2705 4.58373C17.1206 3.43408 15.7717 2.87524 14.147 2.87524ZM27.3737 23.5842C27.5024 24.3025 27.5898 24.9827 27.633 25.6062C27.6757 26.2156 27.6975 26.8515 27.6977 27.4963C27.6977 29.1672 27.1667 30.52 26.1193 31.5166C25.0849 32.5007 23.7168 32.9997 22.0529 32.9997H6.64476C4.98046 32.9997 3.6123 32.5007 2.57812 31.5166C1.531 30.5193 1 29.167 1 27.4966C1 26.854 1.02148 26.218 1.06396 25.6069C1.10718 24.9819 1.19434 24.3015 1.32324 23.5842C1.45312 22.8606 1.62036 22.1767 1.82031 21.5515C2.02734 20.9048 2.30859 20.2668 2.656 19.6553C3.01635 19.0207 3.44018 18.4683 3.91577 18.0132C4.41357 17.5369 5.0227 17.1543 5.72631 16.8757C6.42772 16.5979 7.20507 16.457 8.0371 16.457C8.36376 16.457 8.67967 16.5911 9.28929 16.9883C9.67039 17.2366 10.1098 17.5198 10.5954 17.8301C11.0139 18.0972 11.582 18.3474 12.2827 18.5737C12.9675 18.7952 13.6623 18.9075 14.3479 18.9075C15.0339 18.9075 15.7287 18.7952 16.4131 18.5737C17.1145 18.3472 17.6823 18.0969 18.1015 17.8298C18.5918 17.5166 19.031 17.2334 19.4065 16.9885C20.0166 16.5913 20.3325 16.4573 20.6591 16.4573C21.4909 16.4573 22.2685 16.5979 22.9702 16.8755C23.6743 17.1545 24.2832 17.5371 24.7805 18.0129C25.2561 18.4678 25.6799 19.0205 26.0405 19.6553C26.3884 20.2668 26.6694 20.905 26.8764 21.5513C27.0766 22.1765 27.2438 22.8606 27.3737 23.5842ZM22.0527 31.1245C23.2358 31.1245 24.143 30.8083 24.8264 30.1579C25.4965 29.5202 25.8222 28.6496 25.8225 27.4966C25.8222 26.8952 25.8022 26.3034 25.7624 25.7373V25.7368C25.7238 25.1802 25.6447 24.5674 25.528 23.9153C25.4128 23.2729 25.2656 22.6699 25.0905 22.123C24.9231 21.5998 24.694 21.081 24.4101 20.5818C24.1394 20.1052 23.8278 19.6968 23.4841 19.3679C23.1626 19.0603 22.7573 18.8081 22.28 18.6191C21.8381 18.4443 21.3418 18.3486 20.8027 18.3342C20.737 18.3691 20.6201 18.436 20.4306 18.5593C20.0451 18.8108 19.6132 19.0891 19.1106 19.4104C18.5561 19.7639 17.843 20.0825 16.99 20.3581C16.1191 20.6396 15.2302 20.7827 14.3481 20.7827C13.466 20.7827 12.5774 20.6396 11.706 20.3579C10.8537 20.0828 10.1404 19.7639 9.58665 19.4109C9.09544 19.0972 8.65111 18.8105 8.26561 18.5593C8.07616 18.4358 7.95922 18.3691 7.89354 18.3342C7.35472 18.3486 6.85839 18.4443 6.41674 18.6191C5.9392 18.8081 5.53393 19.0601 5.21239 19.3679C4.86865 19.697 4.55712 20.1055 4.28637 20.5815C4.00268 21.081 3.77392 21.5996 3.6062 22.1233C3.43139 22.6694 3.28442 23.2727 3.16894 23.9155C3.052 24.5664 2.97314 25.1789 2.93457 25.7366C2.89502 26.3049 2.87524 26.897 2.87524 27.4966C2.87524 28.6494 3.20092 29.5202 3.87109 30.1582C4.55419 30.8083 5.46142 31.1245 6.64476 31.1245H22.0527Z" fill="#FE6A3C"/>
<path d="M19.5967 14.1565L19.7381 14.2979L19.7381 14.2979L19.5967 14.1565ZM8.69751 14.1567L8.55608 14.2981L8.55612 14.2982L8.69751 14.1567ZM8.69751 3.25781L8.55608 3.11639L8.69751 3.25781ZM19.5964 3.25756L19.7378 3.11615L19.7378 3.11612L19.5964 3.25756ZM10.0237 4.58373L9.88225 4.44231L10.0237 4.58373ZM10.0237 12.8305L9.88227 12.972L9.88228 12.972L10.0237 12.8305ZM18.2705 12.8305L18.4119 12.972L18.4119 12.9719L18.2705 12.8305ZM18.2705 4.58373L18.4119 4.44233L18.4119 4.4423L18.2705 4.58373ZM27.633 25.6062L27.4335 25.62L27.4335 25.6202L27.633 25.6062ZM27.3737 23.5842L27.5706 23.549L27.5706 23.5489L27.3737 23.5842ZM27.6977 27.4963H27.8977V27.4962L27.6977 27.4963ZM26.1193 31.5166L26.2572 31.6615L26.2572 31.6615L26.1193 31.5166ZM2.57812 31.5166L2.44019 31.6614L2.44025 31.6615L2.57812 31.5166ZM1.06396 25.6069L1.26348 25.6208L1.26349 25.6207L1.06396 25.6069ZM1.32324 23.5842L1.52009 23.6196L1.5201 23.6195L1.32324 23.5842ZM1.82031 21.5515L1.62983 21.4905L1.62981 21.4906L1.82031 21.5515ZM2.656 19.6553L2.8299 19.7541L2.82991 19.754L2.656 19.6553ZM3.91577 18.0132L3.7775 17.8687L3.77749 17.8687L3.91577 18.0132ZM5.72631 16.8757L5.79993 17.0617L5.79996 17.0617L5.72631 16.8757ZM9.28929 16.9883L9.18011 17.1558L9.18012 17.1559L9.28929 16.9883ZM10.5954 17.8301L10.4877 17.9986L10.4878 17.9987L10.5954 17.8301ZM12.2827 18.5737L12.3442 18.3834L12.3442 18.3834L12.2827 18.5737ZM16.4131 18.5737L16.3516 18.3834L16.3515 18.3834L16.4131 18.5737ZM18.1015 17.8298L18.209 17.9985L18.2092 17.9984L18.1015 17.8298ZM19.4065 16.9885L19.2973 16.8209L19.2972 16.821L19.4065 16.9885ZM22.9702 16.8755L23.0439 16.6896L23.0437 16.6895L22.9702 16.8755ZM24.7805 18.0129L24.6422 18.1574L24.6422 18.1575L24.7805 18.0129ZM26.0405 19.6553L25.8666 19.7541L25.8666 19.7542L26.0405 19.6553ZM26.8764 21.5513L27.0669 21.4903L27.0669 21.4902L26.8764 21.5513ZM24.8264 30.1579L24.6885 30.013L24.6885 30.0131L24.8264 30.1579ZM25.8225 27.4966L26.0225 27.4966V27.4965L25.8225 27.4966ZM25.7624 25.7373H25.5619L25.5629 25.7513L25.7624 25.7373ZM25.7624 25.7368H25.9629L25.9619 25.723L25.7624 25.7368ZM25.528 23.9153L25.7249 23.88L25.7249 23.88L25.528 23.9153ZM25.0905 22.123L25.281 22.0621V22.0621L25.0905 22.123ZM24.4101 20.5818L24.2362 20.6806L24.2363 20.6807L24.4101 20.5818ZM23.4841 19.3679L23.3458 19.5124L23.3458 19.5124L23.4841 19.3679ZM22.28 18.6191L22.3536 18.4332L22.3536 18.4332L22.28 18.6191ZM20.8027 18.3342L20.808 18.1343L20.7554 18.1329L20.7088 18.1576L20.8027 18.3342ZM20.4306 18.5593L20.3215 18.3917L20.3214 18.3918L20.4306 18.5593ZM19.1106 19.4104L19.2181 19.579L19.2183 19.5789L19.1106 19.4104ZM16.99 20.3581L16.9285 20.1678L16.9284 20.1678L16.99 20.3581ZM11.706 20.3579L11.7676 20.1676L11.7675 20.1676L11.706 20.3579ZM9.58665 19.4109L9.479 19.5794L9.47913 19.5795L9.58665 19.4109ZM8.26561 18.5593L8.15637 18.7269L8.15642 18.7269L8.26561 18.5593ZM7.89354 18.3342L7.98742 18.1576L7.94088 18.1329L7.8882 18.1343L7.89354 18.3342ZM6.41674 18.6191L6.49033 18.8051L6.49034 18.8051L6.41674 18.6191ZM5.21239 19.3679L5.3507 19.5124L5.35071 19.5124L5.21239 19.3679ZM4.28637 20.5815L4.11252 20.4827L4.11246 20.4828L4.28637 20.5815ZM3.6062 22.1233L3.41573 22.0623L3.41572 22.0623L3.6062 22.1233ZM3.16894 23.9155L3.36579 23.9509L3.36579 23.9509L3.16894 23.9155ZM2.93457 25.7366L3.13408 25.7504L3.13409 25.7504L2.93457 25.7366ZM3.87109 30.1582L3.73319 30.303L3.73321 30.3031L3.87109 30.1582ZM14.147 16.6145C16.3177 16.6145 18.2021 15.8339 19.7381 14.2979L19.4552 14.015C17.9942 15.4761 16.2116 16.2145 14.147 16.2145V16.6145ZM8.55612 14.2982C10.0924 15.8337 11.9767 16.6145 14.147 16.6145V16.2145C12.0829 16.2145 10.3002 15.4759 8.83889 14.0153L8.55612 14.2982ZM6.23945 8.70702C6.23945 10.878 7.02031 12.7624 8.55608 14.2981L8.83893 14.0153C7.37812 12.5545 6.63945 10.7719 6.63945 8.70702H6.23945ZM8.55608 3.11639C7.02032 4.65215 6.23945 6.5365 6.23945 8.70702H6.63945C6.63945 6.64267 7.37812 4.86004 8.83893 3.39923L8.55608 3.11639ZM14.147 0.8C11.976 0.8 10.0919 1.58061 8.55608 3.11639L8.83893 3.39923C10.2997 1.93843 12.0821 1.2 14.147 1.2V0.8ZM19.7378 3.11612C18.2018 1.58061 16.3175 0.8 14.147 0.8V1.2C16.2113 1.2 17.994 1.93843 19.455 3.39901L19.7378 3.11612ZM22.0545 8.70702C22.0545 6.53675 21.2738 4.65241 19.7378 3.11615L19.455 3.39897C20.916 4.86027 21.6545 6.64291 21.6545 8.70702H22.0545ZM19.7381 14.2979C21.2736 12.7621 22.0545 10.878 22.0545 8.70702H21.6545C21.6545 10.7718 20.9158 12.5542 19.4552 14.0151L19.7381 14.2979ZM10.1651 4.72515C11.2773 3.61298 12.575 3.07524 14.147 3.07524V2.67524C12.4689 2.67524 11.0694 3.25517 9.88225 4.44231L10.1651 4.72515ZM8.51469 8.70702C8.51469 7.13562 9.05266 5.83759 10.1651 4.72515L9.88225 4.44231C8.69489 5.62967 8.11469 7.0294 8.11469 8.70702H8.51469ZM10.1651 12.6891C9.05267 11.5769 8.51469 10.2789 8.51469 8.70702H8.11469C8.11469 10.3851 8.69488 11.7848 9.88227 12.972L10.1651 12.6891ZM14.147 14.3393C12.5756 14.3393 11.2778 13.8013 10.1651 12.6891L9.88228 12.972C11.0699 14.1591 12.4693 14.7393 14.147 14.7393V14.3393ZM18.1291 12.6891C17.0166 13.8015 15.7186 14.3393 14.147 14.3393V14.7393C15.8248 14.7393 17.2245 14.1593 18.4119 12.972L18.1291 12.6891ZM19.7792 8.70702C19.7792 10.2789 19.2413 11.5767 18.1291 12.6891L18.4119 12.9719C19.599 11.7846 20.1792 10.3851 20.1792 8.70702H19.7792ZM18.1291 4.72514C19.2413 5.83758 19.7792 7.13561 19.7792 8.70702H20.1792C20.1792 7.0294 19.599 5.62968 18.4119 4.44233L18.1291 4.72514ZM14.147 3.07524C15.7186 3.07524 17.0167 3.61298 18.1291 4.72517L18.4119 4.4423C17.2245 3.25517 15.8248 2.67524 14.147 2.67524V3.07524ZM27.8325 25.5924C27.7887 24.9605 27.7003 24.2731 27.5706 23.549L27.1769 23.6195C27.3045 24.3318 27.3908 25.0048 27.4335 25.62L27.8325 25.5924ZM27.8977 27.4962C27.8975 26.8471 27.8756 26.2065 27.8325 25.5922L27.4335 25.6202C27.4759 26.2247 27.4975 26.856 27.4977 27.4964L27.8977 27.4962ZM26.2572 31.6615C27.3505 30.6212 27.8977 29.2127 27.8977 27.4963H27.4977C27.4977 29.1218 26.9829 30.4188 25.9815 31.3717L26.2572 31.6615ZM22.0529 33.1997C23.759 33.1997 25.1795 32.6868 26.2572 31.6615L25.9815 31.3717C24.9903 32.3146 23.6745 32.7997 22.0529 32.7997V33.1997ZM6.64476 33.1997H22.0529V32.7997H6.64476V33.1997ZM2.44025 31.6615C3.51773 32.6868 4.93825 33.1997 6.64476 33.1997V32.7997C5.02267 32.7997 3.70687 32.3146 2.71599 31.3717L2.44025 31.6615ZM0.8 27.4966C0.8 29.2125 1.3472 30.6204 2.44019 31.6614L2.71606 31.3717C1.71481 30.4181 1.2 29.1215 1.2 27.4966H0.8ZM0.864446 25.593C0.821629 26.209 0.8 26.8496 0.8 27.4966H1.2C1.2 26.8584 1.22134 26.227 1.26348 25.6208L0.864446 25.593ZM1.1264 23.5488C0.996404 24.2722 0.908226 24.9598 0.864441 25.5931L1.26349 25.6207C1.30613 25.004 1.39227 24.3308 1.52009 23.6196L1.1264 23.5488ZM1.62981 21.4906C1.42689 22.1251 1.25764 22.8176 1.12639 23.5489L1.5201 23.6195C1.6486 22.9036 1.81383 22.2284 2.01081 21.6124L1.62981 21.4906ZM2.4821 19.5565C2.12813 20.1796 1.84123 20.8302 1.62983 21.4905L2.01079 21.6125C2.21346 20.9794 2.48905 20.3541 2.8299 19.7541L2.4821 19.5565ZM3.77749 17.8687C3.28644 18.3386 2.851 18.9069 2.48209 19.5565L2.82991 19.754C3.1817 19.1346 3.59393 18.598 4.05404 18.1577L3.77749 17.8687ZM5.65269 16.6898C4.92745 16.9769 4.29575 17.3728 3.7775 17.8687L4.05403 18.1577C4.53139 17.7009 5.11795 17.3317 5.79993 17.0617L5.65269 16.6898ZM8.0371 16.257C7.18244 16.257 6.37981 16.4018 5.65266 16.6898L5.79996 17.0617C6.47564 16.794 7.22769 16.657 8.0371 16.657V16.257ZM9.39848 16.8207C8.7875 16.4226 8.42783 16.257 8.0371 16.257V16.657C8.29968 16.657 8.57185 16.7595 9.18011 17.1558L9.39848 16.8207ZM10.7031 17.6615C10.2179 17.3515 9.77896 17.0686 9.39847 16.8207L9.18012 17.1559C9.56182 17.4045 10.0018 17.6881 10.4877 17.9986L10.7031 17.6615ZM12.3442 18.3834C11.6527 18.1601 11.102 17.9161 10.703 17.6615L10.4878 17.9987C10.9258 18.2782 11.5114 18.5348 12.2212 18.764L12.3442 18.3834ZM14.3479 18.7075C13.6842 18.7075 13.0102 18.5988 12.3442 18.3834L12.2212 18.764C12.9249 18.9916 13.6404 19.1075 14.3479 19.1075V18.7075ZM16.3515 18.3834C15.6861 18.5988 15.012 18.7075 14.3479 18.7075V19.1075C15.0558 19.1075 15.7714 18.9916 16.4746 18.764L16.3515 18.3834ZM17.9941 17.6612C17.5943 17.9159 17.0438 18.1598 16.3516 18.3834L16.4745 18.764C17.1852 18.5345 17.7704 18.278 18.209 17.9985L17.9941 17.6612ZM19.2972 16.821C18.9224 17.0655 18.4837 17.3483 17.9938 17.6613L18.2092 17.9984C18.6998 17.6849 19.1396 17.4013 19.5157 17.156L19.2972 16.821ZM20.6591 16.2573C20.2684 16.2573 19.9088 16.4228 19.2973 16.8209L19.5156 17.1561C20.1244 16.7598 20.3965 16.6573 20.6591 16.6573V16.2573ZM23.0437 16.6895C22.3164 16.4017 21.5135 16.2573 20.6591 16.2573V16.6573C21.4683 16.6573 22.2207 16.7941 22.8966 17.0615L23.0437 16.6895ZM24.9187 17.8684C24.401 17.373 23.7695 16.9772 23.0439 16.6896L22.8965 17.0614C23.579 17.3319 24.1653 17.7012 24.6422 18.1574L24.9187 17.8684ZM26.2144 19.5565C25.8452 18.9067 25.4098 18.3381 24.9187 17.8684L24.6422 18.1575C25.1023 18.5975 25.5145 19.1343 25.8666 19.7541L26.2144 19.5565ZM27.0669 21.4902C26.8555 20.8305 26.5689 20.1796 26.2143 19.5564L25.8666 19.7542C26.2079 20.3541 26.4833 20.9796 26.686 21.6123L27.0669 21.4902ZM27.5706 23.5489C27.4393 22.8176 27.2701 22.1249 27.0669 21.4903L26.6859 21.6122C26.8831 22.2281 27.0484 22.9036 27.1769 23.6195L27.5706 23.5489ZM24.6885 30.0131C24.0512 30.6196 23.1981 30.9245 22.0527 30.9245V31.3245C23.2735 31.3245 24.2349 30.997 24.9643 30.3028L24.6885 30.0131ZM25.6225 27.4965C25.6222 28.6093 25.3096 29.422 24.6885 30.013L24.9642 30.3028C25.6834 29.6185 26.0222 28.69 26.0225 27.4966L25.6225 27.4965ZM25.5629 25.7513C25.6023 26.3125 25.6222 26.8996 25.6225 27.4966L26.0225 27.4965C26.0222 26.8909 26.0021 26.2944 25.9619 25.7233L25.5629 25.7513ZM25.5624 25.7368V25.7373H25.9624V25.7368H25.5624ZM25.3312 23.9505C25.4468 24.5969 25.5249 25.2024 25.5629 25.7506L25.9619 25.723C25.9228 25.1579 25.8426 24.5379 25.7249 23.88L25.3312 23.9505ZM24.9001 22.184C25.0721 22.7214 25.2173 23.3158 25.3312 23.9506L25.7249 23.88C25.6083 23.2301 25.4591 22.6184 25.281 22.0621L24.9001 22.184ZM24.2363 20.6807C24.5137 21.1684 24.737 21.6746 24.9001 22.184L25.281 22.0621C25.1091 21.5251 24.8744 20.9937 24.584 20.4829L24.2363 20.6807ZM23.3458 19.5124C23.6736 19.826 23.9736 20.2184 24.2362 20.6806L24.584 20.483C24.3051 19.9921 23.9821 19.5676 23.6223 19.2234L23.3458 19.5124ZM22.2064 18.8051C22.6632 18.986 23.0456 19.2252 23.3458 19.5124L23.6223 19.2234C23.2796 18.8954 22.8513 18.6302 22.3536 18.4332L22.2064 18.8051ZM20.7974 18.5342C21.3162 18.548 21.789 18.64 22.2064 18.8051L22.3536 18.4332C21.8872 18.2487 21.3674 18.1492 20.808 18.1343L20.7974 18.5342ZM20.5397 18.727C20.7255 18.606 20.8373 18.5423 20.8966 18.5108L20.7088 18.1576C20.6367 18.196 20.5146 18.266 20.3215 18.3917L20.5397 18.727ZM19.2183 19.5789C19.7213 19.2574 20.1537 18.9787 20.5399 18.7268L20.3214 18.3918C19.9365 18.6428 19.5052 18.9208 19.0029 19.2419L19.2183 19.5789ZM17.0515 20.5485C17.9152 20.2694 18.6451 19.9443 19.2181 19.579L19.003 19.2418C18.4671 19.5835 17.7708 19.8957 16.9285 20.1678L17.0515 20.5485ZM14.3481 20.9827C15.2519 20.9827 16.1616 20.8361 17.0515 20.5485L16.9284 20.1678C16.0767 20.4432 15.2085 20.5827 14.3481 20.5827V20.9827ZM11.6445 20.5482C12.5349 20.8361 13.4443 20.9827 14.3481 20.9827V20.5827C13.4878 20.5827 12.6198 20.4432 11.7676 20.1676L11.6445 20.5482ZM9.47913 19.5795C10.0513 19.9443 10.7815 20.2696 11.6446 20.5482L11.7675 20.1676C10.926 19.8959 10.2294 19.5835 9.69417 19.2422L9.47913 19.5795ZM8.15642 18.7269C8.54249 18.9785 8.98735 19.2654 9.479 19.5794L9.69431 19.2423C9.20354 18.9289 8.75973 18.6426 8.37481 18.3918L8.15642 18.7269ZM7.79966 18.5108C7.85903 18.5424 7.97079 18.6058 8.15637 18.7269L8.37485 18.3918C8.18152 18.2657 8.0594 18.1959 7.98742 18.1576L7.79966 18.5108ZM6.49034 18.8051C6.90749 18.64 7.38032 18.548 7.89889 18.5342L7.8882 18.1343C7.32913 18.1492 6.80929 18.2487 6.34313 18.4332L6.49034 18.8051ZM5.35071 19.5124C5.65091 19.2249 6.03318 18.986 6.49033 18.8051L6.34315 18.4332C5.84522 18.6302 5.41695 18.8952 5.07408 19.2235L5.35071 19.5124ZM4.46022 20.6804C4.72283 20.2186 5.0229 19.8262 5.3507 19.5124L5.07408 19.2234C4.71439 19.5678 4.39141 19.9923 4.11252 20.4827L4.46022 20.6804ZM3.79667 22.1843C3.96 21.6743 4.18309 21.1684 4.46028 20.6803L4.11246 20.4828C3.82227 20.9937 3.58784 21.5249 3.41573 22.0623L3.79667 22.1843ZM3.36579 23.9509C3.47993 23.3155 3.62491 22.7209 3.79668 22.1842L3.41572 22.0623C3.23787 22.618 3.08891 23.2299 2.97209 23.8802L3.36579 23.9509ZM3.13409 25.7504C3.17208 25.2011 3.2499 24.5959 3.36579 23.9509L2.97209 23.8801C2.85409 24.5369 2.7742 25.1567 2.73504 25.7228L3.13409 25.7504ZM3.07524 27.4966C3.07524 26.9013 3.09488 26.3139 3.13408 25.7504L2.73505 25.7227C2.69516 26.2959 2.67524 26.8926 2.67524 27.4966H3.07524ZM4.00898 30.0133C3.38781 29.422 3.07524 28.609 3.07524 27.4966H2.67524C2.67524 28.6898 3.01403 29.6185 3.73319 30.303L4.00898 30.0133ZM6.64476 30.9245C5.49908 30.9245 4.64605 30.6196 4.00897 30.0133L3.73321 30.3031C4.46234 30.997 5.42376 31.3245 6.64476 31.3245V30.9245ZM22.0527 30.9245H6.64476V31.3245H22.0527V30.9245Z" fill="white" mask="url(#path-1-outside-1_1379_42237)"/>
</svg>
