<svg width="16" height="17" viewBox="0 0 16 17" fill="none" xmlns="http://www.w3.org/2000/svg">
<g clip-path="url(#clip0_1379_33811)">
<path d="M8 16.3301C12.4183 16.3301 16 12.7484 16 8.33008C16 3.9118 12.4183 0.330078 8 0.330078C3.58172 0.330078 0 3.9118 0 8.33008C0 12.7484 3.58172 16.3301 8 16.3301Z" fill="#FFEDEB"/>
<path d="M4.68668 7.65919C4.93235 7.65604 5.09298 7.74423 5.23157 7.88596C5.7544 8.4088 6.28038 8.93163 6.79692 9.45762C6.88511 9.54581 6.9292 9.54266 7.01424 9.45762C8.25834 8.20722 9.50558 6.96313 10.7497 5.71589C10.9292 5.53636 11.1308 5.43872 11.3859 5.48596C11.9024 5.58045 12.1166 6.17888 11.7796 6.58203C11.7418 6.62612 11.7009 6.66707 11.6599 6.70801C10.2615 8.10644 8.86306 9.50486 7.46463 10.9033C7.08353 11.2844 6.72763 11.2844 6.34967 10.9064C5.65676 10.2135 4.9607 9.52061 4.27094 8.82455C3.88983 8.44345 4.03157 7.83872 4.5292 7.68754C4.59535 7.66549 4.66464 7.66234 4.68668 7.65919Z" fill="#FF5A43"/>
</g>
<defs>
<clipPath id="clip0_1379_33811">
<rect width="16" height="16" fill="white" transform="translate(0 0.330078)"/>
</clipPath>
</defs>
</svg>
