<svg width="32" height="32" viewBox="0 0 32 32" fill="none" xmlns="http://www.w3.org/2000/svg">
<path d="M28.1501 13.7744L25.5091 11.1344C25.4727 11.0978 25.4293 11.0687 25.3816 11.0489C25.3339 11.0291 25.2827 11.0189 25.2311 11.0189C25.1794 11.0189 25.1282 11.0291 25.0805 11.0489C25.0328 11.0687 24.9895 11.0978 24.953 11.1344L17.7264 18.36L17.7408 18.3744L17.7178 18.368L16.7287 22.0588L16.7315 22.0595C16.7065 22.1318 16.7034 22.2099 16.7227 22.2839C16.742 22.3579 16.7828 22.4246 16.8399 22.4754C16.8971 22.5263 16.968 22.5591 17.0438 22.5697C17.1195 22.5803 17.1967 22.5682 17.2656 22.535L17.2663 22.5379L20.9191 21.559L20.9168 21.5504L20.9229 21.5564L28.1498 14.3299C28.2233 14.2562 28.2646 14.1563 28.2647 14.0522C28.2647 13.9481 28.2235 13.8482 28.1501 13.7744ZM17.9312 21.343L18.5187 19.1523L20.1226 20.7561L17.9312 21.343Z" fill="#FF5A43"/>
<path d="M23.0294 23.4336H20.6346H20.6342C20.53 23.4338 20.4301 23.4753 20.3564 23.549C20.2828 23.6227 20.2414 23.7227 20.2413 23.8269L20.2419 23.8307V26.6195H6.91583V6.97889H8.51487V7.96097C8.51423 7.97153 8.51167 7.98113 8.51167 7.99201C8.51167 8.31137 8.77087 8.57249 9.09215 8.57249L9.09663 8.57217V8.57473H18.0653C18.2191 8.57456 18.3666 8.51339 18.4753 8.40462C18.5841 8.29586 18.6453 8.14839 18.6454 7.99457C18.6454 7.98977 18.6442 7.98529 18.6442 7.98049V6.97889H20.2416V9.76865L20.241 9.77249C20.2409 9.82414 20.251 9.87529 20.2707 9.92302C20.2904 9.97075 20.3193 10.0141 20.3558 10.0507C20.3923 10.0872 20.4357 10.1162 20.4834 10.1359C20.5311 10.1557 20.5823 10.1658 20.6339 10.1658H23.0291C23.1333 10.1657 23.2332 10.1243 23.3069 10.0506C23.3806 9.97691 23.422 9.87701 23.4221 9.77281V5.52321H23.416C23.4163 5.50753 23.4208 5.49281 23.4208 5.47681C23.4208 5.03189 23.2441 4.60518 22.9297 4.29046C22.6152 3.97573 22.1886 3.79875 21.7437 3.79841C21.7309 3.79841 21.7194 3.80193 21.7066 3.80225H17.0483V2.71297C17.0483 2.43105 16.8198 2.20321 16.5386 2.20257V2.20001H10.6346V2.20193C10.6298 2.20193 10.6256 2.20065 10.6208 2.20065C10.3392 2.20065 10.1107 2.42881 10.1107 2.71073L10.1117 2.72033V3.80193H5.41919L5.41279 3.80129C4.96801 3.8018 4.54159 3.97874 4.22711 4.29328C3.91263 4.60782 3.73578 5.03427 3.73535 5.47905C3.73535 5.49409 3.73951 5.50785 3.73983 5.52289H3.73535V28.1059H3.73631L3.73535 28.1146C3.73544 28.3348 3.7789 28.5529 3.86327 28.7563C3.94763 28.9597 4.07124 29.1445 4.22704 29.3002C4.38284 29.4558 4.56777 29.5793 4.77128 29.6634C4.97479 29.7476 5.19288 29.7909 5.41311 29.7907C5.43807 29.7907 5.46143 29.7843 5.48639 29.7834V29.7901H21.6464C21.6778 29.7917 21.7075 29.7994 21.7392 29.7994C22.1837 29.7993 22.6101 29.6227 22.9244 29.3084C23.2388 28.9941 23.4155 28.5678 23.4157 28.1232C23.4157 28.1171 23.4141 28.1117 23.4141 28.1056H23.423V23.8266C23.423 23.7749 23.4128 23.7238 23.393 23.6761C23.3732 23.6284 23.3442 23.5851 23.3076 23.5486C23.2711 23.5121 23.2277 23.4832 23.18 23.4634C23.1322 23.4437 23.0811 23.4336 23.0294 23.4336Z" fill="#FF5A43"/>
</svg>
