<svg width="102" height="104" viewBox="0 0 102 104" fill="none" xmlns="http://www.w3.org/2000/svg">
<g opacity="0.2">
<path d="M40.9362 93.6165C42.783 93.6165 44.7836 92.8465 46.1687 91.3066C49.0927 88.2268 49.0927 83.1451 46.1687 80.0652L17.8519 49.5749L46.7843 18.6225C49.7083 15.5427 49.7083 10.461 46.7843 7.38116C43.8603 4.30133 39.2434 4.30133 36.3194 7.38116L2.15452 43.8772C0.769463 45.4171 -7.62939e-06 47.419 -7.62939e-06 49.5749C-7.62939e-06 51.7308 0.769463 53.7327 2.15452 55.2726L35.7038 91.3066C37.2427 92.6925 39.0895 93.6165 40.9362 93.6165Z" fill="#FA774D"/>
<path d="M111.418 103.471C112.342 103.471 113.265 103.317 114.189 102.855C118.036 101.161 119.883 96.5413 118.344 92.5375L84.9481 4.91624C83.4092 0.912458 79.1 -1.08944 75.2526 0.604465C71.4052 2.29837 69.5584 6.91812 71.0974 10.9219L104.493 98.5432C105.724 101.623 108.494 103.471 111.418 103.471Z" fill="#FA774D"/>
</g>
</svg>
