<svg width="112" height="104" viewBox="0 0 112 104" fill="none" xmlns="http://www.w3.org/2000/svg">
<g opacity="0.2">
<path d="M70.5423 93.6165C68.6955 93.6165 66.6949 92.8465 65.3098 91.3066C62.3858 88.2268 62.3858 83.1451 65.3098 80.0652L93.6266 49.5749L64.6942 18.6225C61.7702 15.5427 61.7702 10.461 64.6942 7.38116C67.6183 4.30133 72.2351 4.30133 75.1591 7.38116L109.324 43.8772C110.709 45.4171 111.479 47.419 111.479 49.5749C111.479 51.7308 110.709 53.7327 109.324 55.2726L75.7747 91.3066C74.2358 92.6925 72.389 93.6165 70.5423 93.6165Z" fill="#FA774D"/>
<path d="M0.0600677 103.471C-0.863314 103.471 -1.7867 103.317 -2.71008 102.855C-6.55751 101.161 -8.40428 96.5413 -6.86531 92.5375L26.5304 4.91624C28.0693 0.912458 32.3785 -1.08944 36.2259 0.604465C40.0733 2.29837 41.9201 6.91812 40.3811 10.9219L6.98545 98.5432C5.75427 101.623 2.98411 103.471 0.0600677 103.471Z" fill="#FA774D"/>
</g>
</svg>
