<svg width="554" height="429" viewBox="0 0 554 429" fill="none" xmlns="http://www.w3.org/2000/svg">
<g opacity="0.3">
<path d="M-91.1809 247.288L85.093 329.26C89.6447 331.372 94.4958 332.442 99.5183 332.442C106.053 332.442 112.417 330.588 117.953 327.063C127.87 320.728 133.777 309.926 133.777 298.183V297.285C133.777 284.015 126.001 271.815 113.944 266.222L3.70498 214.998L113.958 163.774C126.001 158.166 133.777 145.981 133.777 132.711V131.826C133.777 120.055 127.856 109.268 117.953 102.947C112.474 99.4368 106.082 97.5962 99.4898 97.5962C94.5243 97.5962 89.5304 98.6947 85.0786 100.764L-91.1809 182.722C-103.224 188.33 -111 200.515 -111 213.785V216.239C-111 229.466 -103.224 241.666 -91.1809 247.288Z" fill="#A03571"/>
<path d="M135.347 414.245C141.782 423.048 152.113 428.299 163.014 428.299H163.898C178.852 428.299 191.965 418.725 196.516 404.499L312.634 44.7177C315.958 34.3302 314.118 22.8723 307.683 14.0543C301.247 5.25062 290.917 0 280.016 0H279.131C264.178 0 251.051 9.57419 246.499 23.7999L130.367 383.61C127.071 393.997 128.926 405.455 135.347 414.245Z" fill="#A03571"/>
<path d="M309.237 132.698C309.237 145.953 317.013 158.153 329.056 163.775L439.295 214.999L329.056 266.223C317.013 271.816 309.223 284.016 309.223 297.286V298.185C309.223 309.928 315.13 320.729 325.061 327.064C330.583 330.574 336.947 332.443 343.496 332.443C348.504 332.443 353.355 331.373 357.936 329.247L534.195 247.274C546.238 241.653 554 229.467 554 216.212V213.758C554 200.488 546.224 188.302 534.181 182.695L357.921 100.736C353.469 98.6675 348.49 97.583 343.524 97.583C336.932 97.583 330.54 99.4378 325.075 102.919C315.144 109.24 309.223 120.042 309.223 131.814V132.698H309.237Z" fill="#A03571"/>
</g>
</svg>
