<svg width="504" height="829" viewBox="0 0 504 829" fill="none" xmlns="http://www.w3.org/2000/svg">
<path d="M427.232 829C604.142 829 705.233 731.683 763 631.962L616.177 561.077C582.479 627.156 510.271 677.617 427.232 677.617C281.612 677.617 175.707 565.883 175.707 414.5C175.707 263.117 281.612 151.383 427.232 151.383C510.271 151.383 582.479 203.045 616.177 267.923L763 195.836C706.437 96.1159 604.142 0 427.232 0C186.538 0 0 168.203 0 414.5C0 660.797 186.538 829 427.232 829Z" fill="url(#paint0_linear)"/>
<defs>
<linearGradient id="paint0_linear" x1="382" y1="-86" x2="381.5" y2="829" gradientUnits="userSpaceOnUse">
<stop stop-color="#FBF1F2" stop-opacity="0"/>
<stop offset="1" stop-color="#FBF1F2"/>
</linearGradient>
</defs>
</svg>
