<svg width="33" height="33" viewBox="0 0 33 33" fill="none" xmlns="http://www.w3.org/2000/svg">
<path d="M16.8462 0.00366211L21.5485 9.53153L32.0631 11.0594L24.4546 18.4758L26.2508 28.9479L16.8462 24.0037L7.44163 28.9479L9.23774 18.4758L1.62929 11.0594L12.1439 9.53153L16.8462 0.00366211Z" fill="#FFB000"/>
<mask id="mask0" mask-type="alpha" maskUnits="userSpaceOnUse" x="1" y="0" width="32" height="29">
<path d="M16.8462 0.00366211L21.5485 9.53153L32.0631 11.0594L24.4546 18.4758L26.2508 28.9479L16.8462 24.0037L7.44163 28.9479L9.23774 18.4758L1.62929 11.0594L12.1439 9.53153L16.8462 0.00366211Z" fill="#FFB000"/>
</mask>
<g mask="url(#mask0)">
<ellipse cx="11.3116" cy="10.6709" rx="10.4812" ry="14.8798" transform="rotate(36.6869 11.3116 10.6709)" fill="url(#paint0_linear)"/>
<rect x="21" y="0.00366211" width="12" height="31" fill="#E0E0E0"/>
</g>
<defs>
<linearGradient id="paint0_linear" x1="11.3116" y1="-4.2089" x2="11.3116" y2="25.5508" gradientUnits="userSpaceOnUse">
<stop offset="0.173021" stop-color="#FFE96B"/>
<stop offset="0.853912" stop-color="#FFB000"/>
</linearGradient>
</defs>
</svg>
