<svg width="1220" height="865" viewBox="0 0 1220 865" fill="none" xmlns="http://www.w3.org/2000/svg">
<g opacity="0.1">
<path d="M562 -424.132C592.94 -441.996 631.06 -441.996 662 -424.132L1173.41 -128.868C1204.35 -111.004 1223.41 -77.9915 1223.41 -42.265V548.265C1223.41 583.991 1204.35 617.004 1173.41 634.868L662 930.132C631.06 947.996 592.94 947.996 562 930.132L50.5861 634.868C19.646 617.004 0.58606 583.992 0.58606 548.265V-42.265C0.58606 -77.9915 19.646 -111.004 50.5861 -128.868L562 -424.132Z" fill="url(#paint0_linear)"/>
<path d="M562 -424.132C592.94 -441.996 631.06 -441.996 662 -424.132L1173.41 -128.868C1204.35 -111.004 1223.41 -77.9915 1223.41 -42.265V548.265C1223.41 583.991 1204.35 617.004 1173.41 634.868L662 930.132C631.06 947.996 592.94 947.996 562 930.132L50.5861 634.868C19.646 617.004 0.58606 583.992 0.58606 548.265V-42.265C0.58606 -77.9915 19.646 -111.004 50.5861 -128.868L562 -424.132Z" fill="url(#paint1_linear)"/>
<path d="M562 -424.132C592.94 -441.996 631.06 -441.996 662 -424.132L1173.41 -128.868C1204.35 -111.004 1223.41 -77.9915 1223.41 -42.265V548.265C1223.41 583.991 1204.35 617.004 1173.41 634.868L662 930.132C631.06 947.996 592.94 947.996 562 930.132L50.5861 634.868C19.646 617.004 0.58606 583.992 0.58606 548.265V-42.265C0.58606 -77.9915 19.646 -111.004 50.5861 -128.868L562 -424.132Z" fill="url(#paint2_linear)"/>
</g>
<defs>
<linearGradient id="paint0_linear" x1="612" y1="-453" x2="612" y2="959" gradientUnits="userSpaceOnUse">
<stop stop-color="#BC3247"/>
<stop offset="1" stop-color="#8B35BA"/>
</linearGradient>
<linearGradient id="paint1_linear" x1="612" y1="-453" x2="612" y2="959" gradientUnits="userSpaceOnUse">
<stop stop-color="white"/>
<stop offset="1" stop-color="white" stop-opacity="0"/>
</linearGradient>
<linearGradient id="paint2_linear" x1="612" y1="-453" x2="612" y2="959" gradientUnits="userSpaceOnUse">
<stop stop-color="white"/>
<stop offset="1" stop-color="white" stop-opacity="0"/>
</linearGradient>
</defs>
</svg>
