<svg width="555" height="726" viewBox="0 0 555 726" fill="none" xmlns="http://www.w3.org/2000/svg">
<g opacity="0.4">
<path d="M171.334 13.7603C201.847 -3.46831 239.153 -3.46831 269.666 13.7603L503.519 145.798C534.928 163.532 554.353 196.807 554.353 232.877V493.123C554.353 529.193 534.928 562.468 503.519 580.202L269.666 712.24C239.153 729.468 201.847 729.468 171.334 712.24L-62.5191 580.202C-93.9281 562.468 -113.353 529.193 -113.353 493.123V232.877C-113.353 196.807 -93.9281 163.532 -62.5191 145.798L171.334 13.7603Z" fill="url(#paint0_linear)"/>
<path d="M171.334 13.7603C201.847 -3.46831 239.153 -3.46831 269.666 13.7603L503.519 145.798C534.928 163.532 554.353 196.807 554.353 232.877V493.123C554.353 529.193 534.928 562.468 503.519 580.202L269.666 712.24C239.153 729.468 201.847 729.468 171.334 712.24L-62.5191 580.202C-93.9281 562.468 -113.353 529.193 -113.353 493.123V232.877C-113.353 196.807 -93.9281 163.532 -62.5191 145.798L171.334 13.7603Z" fill="url(#paint1_linear)"/>
<path d="M171.334 13.7603C201.847 -3.46831 239.153 -3.46831 269.666 13.7603L503.519 145.798C534.928 163.532 554.353 196.807 554.353 232.877V493.123C554.353 529.193 534.928 562.468 503.519 580.202L269.666 712.24C239.153 729.468 201.847 729.468 171.334 712.24L-62.5191 580.202C-93.9281 562.468 -113.353 529.193 -113.353 493.123V232.877C-113.353 196.807 -93.9281 163.532 -62.5191 145.798L171.334 13.7603Z" fill="url(#paint2_linear)"/>
</g>
<defs>
<linearGradient id="paint0_linear" x1="220.5" y1="-14" x2="220.5" y2="740" gradientUnits="userSpaceOnUse">
<stop stop-color="#BC3247"/>
<stop offset="1" stop-color="#FFEAE5"/>
</linearGradient>
<linearGradient id="paint1_linear" x1="220.5" y1="-14" x2="220.5" y2="740" gradientUnits="userSpaceOnUse">
<stop stop-color="white"/>
<stop offset="1" stop-color="white" stop-opacity="0"/>
</linearGradient>
<linearGradient id="paint2_linear" x1="220.5" y1="-14" x2="220.5" y2="740" gradientUnits="userSpaceOnUse">
<stop stop-color="white"/>
<stop offset="1" stop-color="white" stop-opacity="0"/>
</linearGradient>
</defs>
</svg>
