<svg width="22" height="21" viewBox="0 0 22 21" fill="none" xmlns="http://www.w3.org/2000/svg">
<path d="M13.2073 7.98054L13.2633 8.15354H13.4451H20.9869L14.8881 12.5765L14.7411 12.6831L14.797 12.8559L17.119 20.028L11.0182 15.5898L10.8712 15.4828L10.7241 15.5898L4.6251 20.0266L6.96026 12.8563L7.01651 12.6836L6.86962 12.5767L0.770552 8.1398L8.31189 8.15354L8.49374 8.15387L8.55005 7.98096L10.8856 0.809483L13.2073 7.98054Z" stroke="#D5D5D5" stroke-width="0.5"/>
<mask id="mask0_927_19028" style="mask-type:alpha" maskUnits="userSpaceOnUse" x="0" y="0" width="22" height="21">
<path d="M21.7574 7.90354H13.4451L10.8863 0L8.31234 7.90354L0 7.8884L6.72255 12.7789L4.1486 20.6824L10.8711 15.7919L17.5937 20.6824L15.0349 12.7789L21.7574 7.90354Z" fill="#FBBC05"/>
</mask>
<g mask="url(#mask0_927_19028)">
<rect y="-1" width="14" height="22" fill="#FBBC05"/>
</g>
</svg>
