<svg width="50" height="120" viewBox="0 0 50 120" fill="none" xmlns="http://www.w3.org/2000/svg">
<g opacity="0.2">
<path d="M0.998764 63.5393C9.31301 63.5393 11.2026 69.4637 11.2026 74.2536C11.2026 78.4133 10.6987 82.825 10.3208 87.2368C9.81688 91.6486 9.43896 96.0604 9.43896 100.598C9.43896 114.968 18.2572 119.884 28.2091 119.884H30.2246V112.069H28.0831C21.2805 111.312 19.013 107.405 19.013 100.598C19.013 96.5646 19.5168 92.783 19.7688 89.0015C20.2727 85.22 20.6506 81.4385 20.6506 77.657C20.7766 65.8082 16.7454 61.6485 10.3208 59.7578V59.5056C16.7454 57.7409 20.9025 53.5813 20.6506 41.8586C20.6506 38.2031 20.1467 34.6736 19.7688 30.7661C19.5168 27.1106 19.013 23.3291 19.013 19.2955C19.013 12.4887 21.5324 8.7072 27.8311 7.9509H30.0986V0.135742H28.335C17.6272 0.135742 9.31306 5.80803 9.31306 19.4215C9.31306 24.0854 9.81695 28.119 10.1949 32.6569C10.6988 36.8165 11.0767 41.1022 11.0767 45.514C11.0767 50.43 9.06104 56.1023 0.872763 56.1023V63.5393H0.998764Z" fill="#FA774D"/>
</g>
</svg>
