<svg width="66" height="120" viewBox="0 0 66 120" fill="none" xmlns="http://www.w3.org/2000/svg">
<g opacity="0.2">
<path d="M65.4798 63.5393C57.1655 63.5393 55.2759 69.4637 55.2759 74.2536C55.2759 78.4133 55.7798 82.825 56.1577 87.2368C56.6616 91.6486 57.0396 96.0604 57.0396 100.598C57.0396 114.968 48.2213 119.884 38.2694 119.884H36.2539V112.069H38.3954C45.198 111.312 47.4655 107.405 47.4655 100.598C47.4655 96.5646 46.9617 92.783 46.7097 89.0015C46.2058 85.22 45.8279 81.4385 45.8279 77.657C45.7019 65.8082 49.7331 61.6485 56.1577 59.7578V59.5056C49.7331 57.7409 45.576 53.5813 45.8279 41.8586C45.8279 38.2031 46.3318 34.6736 46.7097 30.7661C46.9617 27.1106 47.4655 23.3291 47.4655 19.2955C47.4655 12.4887 44.9461 8.7072 38.6474 7.9509H36.3799V0.135742H38.1435C48.8513 0.135742 57.1655 5.80803 57.1655 19.4215C57.1655 24.0854 56.6616 28.119 56.2836 32.6569C55.7798 36.8165 55.4018 41.1022 55.4018 45.514C55.4018 50.43 57.4175 56.1023 65.6058 56.1023V63.5393H65.4798Z" fill="#FA774D"/>
</g>
</svg>
